<svg clip-rule="evenodd" fill-rule="evenodd" stroke-linejoin="round" stroke-miterlimit="2" viewBox="0 0 512 512" xmlns="http://www.w3.org/2000/svg" xmlns:serif="http://www.serif.com/"><g transform="translate(-1124 -562)"><g id="Icons"><path d="m1500.89 730.038c-9.68-16.062-27.29-26.814-47.39-26.814-29.88 0-54.26 23.758-55.25 53.397-10.08-3.535-21.27-4.198-32.36-1.27-1.41.371-2.79.793-4.14 1.264-1-29.638-25.37-53.391-55.25-53.391-20.1 0-37.71 10.752-47.39 26.814l-103.42-58.487c-6.6-3.789-15.03-1.52-18.84 5.073s-1.55 15.034 5.03 18.854l25.79 15.202c.1.061.19.119.28.174.08.04.15.079.22.115l83.06 48.949c.75 29.862 25.23 53.878 55.27 53.878 6.39 0 12.53-1.087 18.24-3.085.14 4.045.73 8.134 1.81 12.208.43 1.659.94 3.279 1.52 4.859l-183.77 103.932c-.02.007-.03.014-.04.022-8.85 5.109-11.89 16.443-6.78 25.293s16.44 11.887 25.29 6.777c.02-.007.03-.015.04-.022l57-33.587c.79-.025 1.59-.241 2.33-.667.77-.441 1.37-1.054 1.79-1.763l124.67-73.464c12.83 8.84 29.29 12.245 45.51 7.96 6.37-1.681 12.18-4.409 17.31-7.949l124.65 73.453c.42.709 1.02 1.322 1.79 1.763.74.426 1.54.642 2.33.667l57 33.587c.01.007.02.015.04.022 8.85 5.11 20.18 2.073 25.29-6.777s2.07-20.184-6.78-25.293c-.01-.008-.02-.015-.04-.022l-183.78-103.936c1.99-5.415 3.14-11.167 3.34-17.062 5.72 1.997 11.85 3.084 18.24 3.084 30.04 0 54.52-24.016 55.27-53.878l83.06-48.948c.07-.037.15-.075.22-.116.09-.055.19-.114.28-.175l25.79-15.201c6.58-3.82 8.84-12.261 5.03-18.854s-12.24-8.862-18.84-5.073zm54.53 179.068-7.95 13.77 54.78 32.281c4.07 2.329 9.26.93 11.61-3.132 2.35-4.066.96-9.271-3.1-11.625zm-350.84 0-55.35 31.301c-4.05 2.357-5.43 7.556-3.09 11.618 2.35 4.066 7.55 5.464 11.62 3.125l54.77-32.274zm127.76-72.257-119.06 67.334 7.86 13.616 119.35-70.324c-3.11-3.165-5.85-6.723-8.15-10.626zm95.3-.01c-2.26 3.846-4.99 7.421-8.13 10.635l119.35 70.325 7.86-13.616zm-4.61-42.162c-1.58 8.356-5.6 16.342-12.06 22.804-17.09 17.092-44.85 17.092-61.94 0-6.46-6.46-10.48-14.442-12.06-22.797-.9 2.743-1.55 5.583-1.91 8.483-.01.235-.04.469-.08.699-.6 5.38-.23 10.957 1.23 16.501 6.39 24.165 31.18 38.604 55.35 32.224 21.98-5.802 35.91-26.834 33.46-48.77-.04-.2-.06-.402-.08-.606-.25-1.989-.63-3.982-1.15-5.971-.23-.867-.49-1.722-.76-2.567zm-22.06-26c-9.66-5.054-21.17-6.658-32.53-3.657-3.31.874-6.44 2.092-9.35 3.606-.2.126-.41.238-.63.335-4.12 2.225-7.81 5.047-10.97 8.324-3.22 11.4-.35 24.162 8.61 33.125 13.19 13.19 34.61 13.19 47.8 0 8.96-8.965 11.83-21.729 8.61-33.129-3.24-3.337-6.97-6.146-11.04-8.339-.17-.079-.34-.167-.5-.265zm87.07-39.445c-8.31-9.792-20.71-16.008-34.54-16.008-24.99 0-45.29 20.292-45.29 45.286 0 .945.03 1.883.09 2.814 12 7.15 21.31 18.814 25.15 33.367.44 1.646.79 3.295 1.07 4.943 5.78 2.672 12.21 4.162 18.98 4.162 4.66 0 9.15-.705 13.38-2.012-3.23-2.029-6.22-4.566-8.84-7.604-14.17-16.413-12.34-41.242 4.07-55.409 7.49-6.468 16.74-9.604 25.93-9.539zm-180.09-15.985c6.85 7.622 10.73 17.902 9.98 28.928-1.47 21.633-20.22 38.001-41.85 36.53-3.95-.268-7.73-1.113-11.25-2.446 6.91 16.183 22.97 27.537 41.67 27.537 6.77 0 13.2-1.489 18.97-4.16 2.68-15.851 12.22-29.996 26.23-38.338.06-.922.09-1.852.09-2.788 0-24.509-19.52-44.497-43.84-45.263zm186.93 26.856c-8.92-2.22-18.75-.222-26.24 6.238-12.23 10.561-13.59 29.07-3.03 41.305 3.57 4.132 8.04 7.024 12.87 8.634 12.23-8.109 20.31-22.004 20.31-37.77 0-6.554-1.4-12.784-3.91-18.407zm-200.37-25.272c-19.18 5.259-33.3 22.834-33.3 43.679 0 1.564.08 3.111.24 4.635 4.32 3.171 9.56 5.193 15.3 5.583 16.13 1.097 30.11-11.105 31.21-27.231.75-11.045-4.74-21.083-13.45-26.666zm213.42 33.971 74.8-44.077-4.12-7.15-73.35 41.48c1.18 3.125 2.08 6.384 2.67 9.747zm-253.19-9.747-73.35-41.48-4.12 7.15 74.8 44.077c.59-3.363 1.49-6.622 2.67-9.747zm336.61-39.407 21.7-12.79c.02-.008.03-.015.04-.023 1.83-1.052 2.45-3.387 1.4-5.211-1.05-1.823-3.39-2.449-5.21-1.396-.01.007-.03.015-.04.022l-21.93 12.402zm-418.66-6.996-21.93-12.402c-.01-.007-.02-.015-.04-.022-1.82-1.053-4.16-.427-5.21 1.396-1.05 1.824-.43 4.159 1.4 5.211.01.008.02.015.04.023l21.7 12.79z"/></g></g></svg>