<svg id="Capa_1" enable-background="new 0 0 512.001 512.001" height="512" viewBox="0 0 512.001 512.001" width="512" xmlns="http://www.w3.org/2000/svg"><g><g id="Page-1_6_"><g id="_x30_07---Cues-and-White-Ball"><path id="Shape_26_" d="m.001 477.34c-.057 9.167 3.543 17.978 10.003 24.482s15.245 10.165 24.412 10.172h.222c9.217-.026 18.032-3.777 24.439-10.402l196.924-202.078 196.898 202.052c6.442 6.655 15.305 10.416 24.567 10.428h.154c9.14-.016 17.899-3.664 24.348-10.142 6.449-6.477 10.058-15.253 10.033-24.393-.011-9.261-3.769-18.122-10.419-24.567l-202.582-197.445 205.56-210.893c9.955-10.299 9.814-26.677-.315-36.805-10.13-10.127-26.508-10.264-36.805-.307l-211.439 206.08-211.473-206.07c-10.238-9.992-26.6-9.916-36.745.17-5.011 4.874-7.821 11.578-7.782 18.569.021 6.845 2.694 13.415 7.458 18.33l205.577 210.884-202.642 197.512c-6.617 6.405-10.365 15.213-10.393 24.423zm449.834-401.067-305.408 313.31-22.016-22.007 313.344-305.417zm-1.834-26.018 12.8-12.501 13.449 13.44-12.501 12.8zm46.933 427.281c.014 9.581-7.734 17.363-17.314 17.391h-.077c-4.683-.003-9.165-1.903-12.425-5.265l-85.623-87.859 22.315-22.315 87.851 85.623c3.36 3.262 5.261 7.742 5.273 12.425zm-105.353-109.961-21.999 21.999-99.635-102.246 19.157-19.627zm96.18-350.515c3.692-.008 7.028 2.201 8.463 5.602s.689 7.332-1.892 9.971l-6.17 6.34-13.142-13.141 6.34-6.178c1.714-1.667 4.011-2.598 6.401-2.594zm-421.76 33.212-13.722 13.721-12.501-12.8 13.423-13.423zm-46.934-24.081c-.014-2.44.98-4.777 2.748-6.46 3.525-3.536 9.243-3.562 12.8-.06l6.357 6.187-13.107 13.099-6.187-6.349c-1.668-1.72-2.604-4.021-2.611-6.417zm45.125 50.031 14.037-14.046 167.543 163.268-18.492 18.048zm-39.885 388.915 87.893-85.658 22.323 22.323-85.666 87.876c-3.234 3.342-7.681 5.234-12.331 5.248h-.111c-7.061-.001-13.418-4.28-16.077-10.821-2.658-6.541-1.089-14.041 3.969-18.968z"/><path id="Shape_25_" d="m256.001 145.06c32.99 0 59.733-26.744 59.733-59.733s-26.744-59.733-59.733-59.733-59.733 26.744-59.733 59.733c.037 32.974 26.758 59.695 59.733 59.733zm0-102.4c23.564 0 42.667 19.103 42.667 42.667s-19.103 42.667-42.667 42.667-42.667-19.103-42.667-42.667c.028-23.553 19.114-42.639 42.667-42.667z"/><path id="Shape_24_" d="m238.934 93.86c4.713 0 8.533-3.821 8.533-8.533s3.82-8.533 8.533-8.533 8.533-3.82 8.533-8.533-3.82-8.533-8.533-8.533c-14.138 0-25.6 11.462-25.6 25.6.001 4.712 3.821 8.532 8.534 8.532z"/></g></g></g></svg>