<svg id="Capa_1" enable-background="new 0 0 511.861 511.861" height="512" viewBox="0 0 511.861 511.861" width="512" xmlns="http://www.w3.org/2000/svg"><g><path d="m435.479 35.368c0-19.502-15.866-35.368-35.368-35.368-.013 0-.027.001-.04.001s-.026-.001-.04-.001h-288.2c-.013 0-.027.001-.04.001s-.027-.001-.041-.001c-19.502 0-35.368 15.866-35.368 35.368 0 .013.001.027.001.04s-.001.027-.001.04v440.965c0 .013.001.027.001.04s-.001.027-.001.04c0 19.502 15.866 35.368 35.369 35.368.013 0 .027-.001.04-.001s.027.001.04.001h197.925c4.143 0 7.5-3.357 7.5-7.5s-3.357-7.5-7.5-7.5h-169.118c3.626-5.127 5.92-11.254 6.384-17.881h217.818c.463 6.627 2.758 12.754 6.384 17.881h-26.645c-4.143 0-7.5 3.357-7.5 7.5s3.357 7.5 7.5 7.5h55.452c.013 0 .027-.001.04-.001s.027.001.04.001c19.502 0 35.368-15.866 35.368-35.368 0-.013-.001-.027-.001-.04s.001-.027.001-.04v-440.965c0-.013-.001-.027-.001-.04s.001-.026.001-.04zm-35.408-20.366c11.243.022 20.384 9.163 20.406 20.406-.022 11.213-9.148 20.328-20.366 20.328-11.231 0-20.368-9.137-20.368-20.368 0-11.218 9.115-20.344 20.328-20.366zm-28.847-.002c-3.626 5.127-5.92 11.254-6.384 17.881h-217.819c-.463-6.627-2.758-12.754-6.384-17.881zm-259.433.002c11.212.022 20.328 9.148 20.328 20.366 0 11.231-9.137 20.368-20.368 20.368-11.218 0-20.345-9.115-20.367-20.328.022-11.243 9.163-20.384 20.407-20.406zm-20.409 269.816c4.981 3.522 10.905 5.789 17.315 6.341v150.107c-6.41.551-12.334 2.818-17.315 6.341zm0-28.887c0-11.231 9.137-20.368 20.369-20.368 11.231 0 20.368 9.137 20.368 20.368s-9.137 20.368-20.368 20.368c-11.232 0-20.369-9.137-20.369-20.368zm20.409 240.928c-11.243-.022-20.385-9.163-20.407-20.406.022-11.213 9.149-20.328 20.367-20.328 11.231 0 20.368 9.137 20.368 20.368 0 11.218-9.116 20.344-20.328 20.366zm255.246-32.879h-222.212c-3.659-9.639-11.412-17.276-21.128-20.774v-153.988c13.641-4.911 23.422-17.976 23.422-33.287s-9.781-28.376-23.422-33.287v-76.368c0-4.143-3.358-7.5-7.5-7.5s-7.5 3.357-7.5 7.5v74.427c-6.41.551-12.334 2.818-17.315 6.341v-162.789c4.981 3.522 10.905 5.789 17.315 6.341v40.709c0 4.143 3.358 7.5 7.5 7.5s7.5-3.357 7.5-7.5v-42.65c9.717-3.498 17.469-11.135 21.128-20.774h222.212c3.659 9.639 11.412 17.276 21.128 20.774v153.988c-13.641 4.911-23.422 17.976-23.422 33.287s9.781 28.376 23.422 33.287v153.988c-9.717 3.499-17.469 11.136-21.128 20.775zm33.034 32.879c-11.213-.022-20.328-9.148-20.328-20.366 0-11.231 9.137-20.368 20.368-20.368 11.218 0 20.344 9.115 20.366 20.328-.021 11.244-9.162 20.384-20.406 20.406zm20.408-49.253c-4.981-3.522-10.904-5.789-17.314-6.34v-150.108c6.41-.551 12.334-2.818 17.314-6.34zm-20.368-171.307c-11.231 0-20.368-9.137-20.368-20.368s9.137-20.368 20.368-20.368 20.368 9.137 20.368 20.368-9.136 20.368-20.368 20.368zm20.368-49.256c-4.981-3.522-10.904-5.789-17.314-6.34v-150.107c6.41-.551 12.334-2.818 17.314-6.34z"/></g></svg>