<svg clip-rule="evenodd" fill-rule="evenodd" stroke-linejoin="round" stroke-miterlimit="2" viewBox="0 0 512 512" xmlns="http://www.w3.org/2000/svg" xmlns:serif="http://www.serif.com/"><g transform="translate(-1686 -2810)"><g id="Icons"><path d="m2043.3 2968.8h-73.6c5.81-5.96 9.4-14.11 9.4-23.1 0-18.26-14.83-33.1-33.1-33.1s-33.1 14.84-33.1 33.1c0 8.99 3.59 17.14 9.4 23.1h-218.3c-2.76 0-5 2.24-5 5v81.8c0 2.76 2.24 5 5 5h38.33l7.52 38.36c.46 2.35 2.52 4.04 4.91 4.04h12.34v37.72c0 10.08 6.99 18.54 16.39 20.8v44.55h-6.25c-5.59 0-10.14 4.55-10.14 10.14v10.28c0 5.6 4.55 10.14 10.14 10.14h55.26c5.59 0 10.13-4.54 10.13-10.14v-10.28c0-5.59-4.54-10.14-10.13-10.14h-6.25v-44.55c9.39-2.26 16.38-10.72 16.38-20.8v-37.72h8.64v34.83c0 1.6.76 3.1 2.04 4.04 1.29.94 2.95 1.21 4.47.73 56.81-18.03 113.62-18.23 170.43-.01 1.52.49 3.18.22 4.47-.72s2.05-2.44 2.05-4.04v-34.83h8.64v37.72c0 10.08 6.99 18.54 16.38 20.8v44.55h-6.24c-5.6 0-10.14 4.55-10.14 10.14v10.28c0 5.6 4.54 10.14 10.14 10.14h55.25c5.59 0 10.14-4.54 10.14-10.14v-10.28c0-5.59-4.55-10.14-10.14-10.14h-6.25v-44.55c9.4-2.26 16.39-10.72 16.39-20.8v-37.72h12.34c2.4 0 4.45-1.69 4.91-4.04l7.52-38.36h38.33c2.76 0 5-2.24 5-5v-81.8c0-2.76-2.24-5-5-5h-91.3c5.81-5.96 9.4-14.11 9.4-23.1 0-18.26-14.83-33.1-33.1-33.1s-33.1 14.84-33.1 33.1c0 8.99 3.59 17.14 9.4 23.1zm10.21 247.27h55.25c.08 0 .14.07.14.14v10.28c0 .08-.06.14-.14.14h-55.25c-.08 0-.14-.06-.14-.14v-10.28c0-.07.06-.14.14-.14zm-276.27 0h55.26c.07 0 .13.07.13.14v10.28c0 .08-.06.14-.13.14h-55.26c-.08 0-.14-.06-.14-.14v-10.28c0-.07.06-.14.14-.14zm292.51-53.96v43.96h22.76v-43.96zm-276.26 0v43.96h22.76v-43.96zm315.41-59.11h-55.53v37.72c0 6.29 5.1 11.39 11.38 11.39h32.76c6.29 0 11.39-5.1 11.39-11.39zm-276.27 0h-55.53v37.72c0 6.29 5.1 11.39 11.39 11.39h32.76c6.28 0 11.38-5.1 11.38-11.39zm192.1 0h-163.46v28.08c54.49-16.03 108.98-16.2 163.46-.02zm108.75-42.4h-380.96l6.35 32.4h368.26zm-424.48-70.4h43.83c12.69 0 22.99 10.3 22.99 22.99s-10.3 22.99-22.99 22.99h-43.83v14.42h37.36c.06-.01.12-.01.18 0h392.92c.06-.01.12-.01.18 0h37.36v-14.42h-43.83c-12.69 0-22.99-10.3-22.99-22.99s10.3-22.99 22.99-22.99h43.83v-11.4h-110-121-237zm175.67 40.98c0 2.76 2.24 5 5 5h106.66c2.76 0 5-2.24 5-5v-35.98c0-2.76-2.24-5-5-5h-106.66c-2.76 0-5 2.24-5 5zm292.33-30.98h-43.83c-7.17 0-12.99 5.82-12.99 12.99s5.82 12.99 12.99 12.99h43.83zm-468 0v25.98h43.83c7.17 0 12.99-5.82 12.99-12.99s-5.82-12.99-12.99-12.99zm185.67 25.98v-25.98h96.66v25.98zm51.33-103.58c12.75 0 23.1 10.35 23.1 23.1s-10.35 23.1-23.1 23.1-23.1-10.35-23.1-23.1 10.35-23.1 23.1-23.1zm121 0c12.75 0 23.1 10.35 23.1 23.1s-10.35 23.1-23.1 23.1-23.1-10.35-23.1-23.1 10.35-23.1 23.1-23.1zm-365.93 4.74 191.92 36.16c7.6 1.49 14.99-3.47 16.49-11.08 1.5-7.6-3.44-14.99-11.04-16.52 0 0-195.43-40.43-195.43-40.43-1.47-.3-3 .07-4.17 1.02-1.16.95-1.84 2.37-1.84 3.88v22.06c0 2.41 1.71 4.47 4.07 4.91zm148.12 8.59 47.24 9.77c.01 0 .02 0 .04.01 2.2.43 3.64 2.57 3.2 4.78-.43 2.2-2.57 3.63-4.78 3.19-.01 0-.03 0-.04 0l-47.4-8.93zm-9.79-2.03-1.78 8.99-130.62-24.61v-11.77z"/></g></g></svg>