<svg clip-rule="evenodd" fill-rule="evenodd" stroke-linejoin="round" stroke-miterlimit="2" viewBox="0 0 512 512" xmlns="http://www.w3.org/2000/svg" xmlns:serif="http://www.serif.com/"><g transform="translate(-1686 -2248)"><g id="Icons"><path d="m1699 2375.09v81.79c0 2.76 2.24 5 5 5h38.33l7.52 38.36c.46 2.35 2.52 4.04 4.91 4.04h12.34v37.72c0 10.08 6.99 18.54 16.39 20.8v44.56h-6.25c-5.59 0-10.14 4.54-10.14 10.13v10.29c0 5.59 4.55 10.13 10.14 10.13h55.26c5.59 0 10.13-4.54 10.13-10.13v-10.29c0-5.59-4.54-10.13-10.13-10.13h-6.25v-44.56c9.39-2.26 16.38-10.72 16.38-20.8v-37.72h8.64v34.83c0 1.6.76 3.1 2.04 4.04 1.29.94 2.95 1.21 4.47.73 56.81-18.03 113.62-18.23 170.43-.01 1.52.49 3.18.22 4.47-.72s2.05-2.44 2.05-4.04v-34.83h8.64v37.72c0 10.08 6.99 18.54 16.38 20.8v44.56h-6.24c-5.6 0-10.14 4.54-10.14 10.13v10.29c0 5.59 4.54 10.13 10.14 10.13h55.25c5.59 0 10.14-4.54 10.14-10.13v-10.29c0-5.59-4.55-10.13-10.14-10.13h-6.25v-44.56c9.4-2.26 16.39-10.72 16.39-20.8v-37.72h12.34c2.4 0 4.45-1.69 4.91-4.04l7.52-38.36h38.33c2.76 0 5-2.24 5-5v-81.79c0-2.77-2.24-5-5-5h-478c-2.76 0-5 2.23-5 5zm409.9 242.4v10.29c0 .07-.06.13-.14.13h-55.25c-.08 0-.14-.06-.14-.13v-10.29c0-.07.06-.13.14-.13h55.25c.08 0 .14.06.14.13zm-276.27 0v10.29c0 .07-.06.13-.13.13h-55.26c-.08 0-.14-.06-.14-.13v-10.29c0-.07.06-.13.14-.13h55.26c.07 0 .13.06.13.13zm237.12-54.1v43.97h22.76v-43.97zm-276.26 0v43.97h22.76v-43.97zm315.41-59.11h-55.53v37.72c0 6.29 5.1 11.39 11.38 11.39h32.76c6.29 0 11.39-5.1 11.39-11.39zm-276.27 0h-55.53v37.72c0 6.29 5.1 11.39 11.39 11.39h32.76c6.28 0 11.38-5.1 11.38-11.39zm192.1 0h-163.46v28.08c54.49-16.03 108.98-16.2 163.46-.02zm108.75-42.4h-380.96l6.35 32.4h368.26zm-424.48-70.4h43.83c12.69 0 22.99 10.3 22.99 22.99s-10.3 22.99-22.99 22.99h-43.83v14.42h37.36.18 392.92.18 37.36v-14.42h-43.83c-12.69 0-22.99-10.3-22.99-22.99s10.3-22.99 22.99-22.99h43.83v-11.39s-417.41 0-468 0zm175.67 40.98c0 2.76 2.24 5 5 5h106.66c2.76 0 5-2.24 5-5v-35.98c0-2.76-2.24-5-5-5h-106.66c-2.76 0-5 2.24-5 5zm292.33-30.98h-43.83c-7.17 0-12.99 5.82-12.99 12.99s5.82 12.99 12.99 12.99h43.83zm-468 0v25.98h43.83c7.17 0 12.99-5.82 12.99-12.99s-5.82-12.99-12.99-12.99zm185.67 25.98v-25.98h96.66v25.98z"/></g></g></svg>