<?xml version="1.0" encoding="iso-8859-1"?>
<!-- Generator: Adobe Illustrator 19.0.0, SVG Export Plug-In . SVG Version: 6.00 Build 0)  -->
<svg version="1.1" id="Layer_1" xmlns="http://www.w3.org/2000/svg" xmlns:xlink="http://www.w3.org/1999/xlink" x="0px" y="0px"
	 viewBox="0 0 512 512" style="enable-background:new 0 0 512 512;" xml:space="preserve">
<g>
	<g>
		<path d="M511.691,297.149l0.031-0.049l-0.187-2.479c-3.651-48.559-29.328-93.127-69.211-120.9l0.168-0.192l-7.535-4.658
			c-0.013-0.008-0.027-0.016-0.041-0.024l-5.36-3.315l-0.092,0.105c-24.249-13.697-51.663-20.919-79.699-20.919
			c-11.935,0-23.81,1.324-35.4,3.906c-10.951-29.599-30.103-55.102-55.721-74.063c-28.062-20.77-61.399-31.747-96.41-31.747
			C72.777,42.813,0,115.59,0,205.047S72.777,367.28,162.234,367.28c11.939,0,23.817-1.325,35.41-3.908
			c9.493,25.591,25.344,48.449,46.167,66.427l2.126,1.836h0.041c29.054,24.215,65.906,37.55,103.787,37.55
			c89.457,0,162.235-72.777,162.235-162.234C512,303.697,511.885,300.406,511.691,297.149z M307.001,166.042
			c1.479-0.447,2.964-0.881,4.463-1.284c12.449-3.345,25.336-5.041,38.3-5.041c24.347,0,48.174,5.988,69.458,17.391
			c-0.053,0.056-0.104,0.114-0.157,0.171c-0.152,0.16-0.305,0.319-0.457,0.48c0.004-0.001,0.007-0.003,0.011-0.004
			c-64.812,69.118-149.51,92.865-213.222,100.145c10.514-52.813,48.913-95.532,100.597-111.552
			C306.329,166.243,306.665,166.143,307.001,166.042z M188.013,294.671c-0.308,4.094-0.481,8.198-0.481,12.279
			c0,14.123,1.822,28.091,5.412,41.636c0.038,0.15,0.073,0.302,0.113,0.451c-10.101,2.154-20.438,3.242-30.823,3.242
			C81.049,352.28,15,286.232,15,205.047S81.049,57.813,162.234,57.813c61.575,0,115.933,37.761,137.599,94.746
			c-0.511,0.165-1.018,0.34-1.526,0.51c0.006,0.004,0.011,0.009,0.016,0.012c-27.018,9.014-51.143,24.956-70.198,46.532
			c-20.048,22.701-33.204,50.19-38.262,79.824l-0.113,0.01l-0.789,5.932l-1.239,9.318L188.013,294.671z M209.618,352.181
			c-0.48-1.488-0.919-2.988-1.351-4.489c-0.188-0.659-0.377-1.318-0.555-1.979c-0.152-0.56-0.29-1.123-0.436-1.684
			c-0.461-1.795-0.898-3.596-1.295-5.406c-2.275-10.364-3.451-20.966-3.451-31.672c0-4.558,0.214-9.15,0.636-13.715
			c67.618-7.135,159.596-32.04,229.157-108.201c36.338,24.67,60.011,64.565,64.047,108.243
			C431.715,393.298,328.258,415.733,251.517,416.6C232.063,399.155,217.603,376.94,209.618,352.181z M349.765,454.185
			c-28.189,0-55.75-8.137-79.294-23.18c-0.052-0.016-0.103-0.036-0.154-0.052c40.009-2.243,77.244-10.246,110.924-23.916
			c46.41-18.836,84.889-48.088,114.699-87.11c0,0.003-0.001,0.007-0.002,0.011c0.184-0.24,0.371-0.476,0.554-0.717
			C490.237,394.685,426.819,454.185,349.765,454.185z"/>
	</g>
</g>
<g>
	<g>
		<path d="M359.753,257.391c-36.196,0-65.645,29.448-65.645,65.645s29.449,65.645,65.645,65.645
			c36.197,0,65.646-29.448,65.646-65.645S395.951,257.391,359.753,257.391z M358.516,313.386c1.111-0.542,2.286-1.366,3.521-2.478
			c1.235-1.108,2.368-2.313,3.402-3.615c1.032-1.299,1.942-2.594,2.728-3.884c0.785-1.288,1.271-2.412,1.455-3.372l12.973,26.62
			l-12.475,6.079l5.182,10.63l34.977-17.046c-1.698,26.401-23.705,47.362-50.527,47.362c-27.926,0-50.644-22.719-50.644-50.644
			s22.72-50.644,50.645-50.644c27.926,0,50.646,22.719,50.646,50.644c0,0.564-0.024,1.121-0.043,1.681l-4.565-9.366l-11.158,5.438
			l-19.268-39.534l-12.035,5.866c-0.037,0.67-0.375,1.723-1.017,3.158c-0.641,1.437-1.465,2.98-2.473,4.629
			c-1.008,1.652-2.108,3.186-3.303,4.6c-1.195,1.418-2.318,2.381-3.373,2.895L358.516,313.386z"/>
	</g>
</g>
<g>
	<g>
		<path d="M102.909,121.259c-42.096,0-76.344,34.248-76.344,76.344s34.248,76.343,76.344,76.343
			c42.096,0,76.343-34.247,76.343-76.343S145.005,121.259,102.909,121.259z M102.909,258.945c-33.825,0-61.344-27.519-61.344-61.343
			c0-33.825,27.519-61.344,61.344-61.344c33.824,0,61.343,27.519,61.343,61.344C164.252,231.427,136.733,258.945,102.909,258.945z"
			/>
	</g>
</g>
<g>
	<g>
		<path d="M129.84,178.327c-0.646-3.016-1.837-5.784-3.575-8.3c-1.739-2.515-3.916-4.701-6.532-6.562
			c-2.617-1.86-5.295-3.263-8.034-4.206c-2.81-0.969-5.788-1.496-8.937-1.586c-3.149-0.089-6.201,0.316-9.154,1.213
			c-2.952,0.898-5.598,2.344-7.932,4.336c-2.336,1.993-4.067,4.633-5.2,7.921c-1.016,2.946-1.059,5.957-0.127,9.037
			c0.932,3.08,2.451,5.673,4.561,7.779c-1.607,0.214-3.266,0.638-4.979,1.272c-1.713,0.637-3.367,1.483-4.957,2.545
			c-1.593,1.061-3.033,2.346-4.318,3.856c-1.288,1.511-2.285,3.294-2.993,5.349c-1.157,3.357-1.535,6.675-1.132,9.955
			c0.4,3.282,1.446,6.361,3.137,9.242c1.688,2.882,3.947,5.441,6.778,7.682c2.829,2.24,6.06,3.985,9.69,5.236
			c3.63,1.252,7.236,1.9,10.823,1.949c3.585,0.049,6.936-0.502,10.053-1.65c3.114-1.148,5.848-2.851,8.197-5.107
			c2.347-2.254,4.112-5.095,5.293-8.521c0.731-2.122,1.078-4.187,1.043-6.192c-0.039-2.006-0.352-3.933-0.938-5.784
			c-0.589-1.851-1.374-3.577-2.354-5.179c-0.981-1.604-2.096-3.039-3.341-4.313c1.513-0.169,3.016-0.531,4.513-1.089
			c1.494-0.558,2.875-1.288,4.146-2.191c1.269-0.903,2.386-1.976,3.35-3.214c0.962-1.238,1.693-2.578,2.188-4.017
			C130.243,184.5,130.485,181.348,129.84,178.327z M106.811,214.132c-0.543,1.576-1.388,2.912-2.532,4.012
			c-1.146,1.1-2.467,1.93-3.961,2.486c-1.496,0.559-3.091,0.852-4.786,0.879c-1.695,0.03-3.365-0.24-5.01-0.807
			c-1.576-0.543-3.028-1.331-4.357-2.363c-1.33-1.033-2.412-2.229-3.246-3.591c-0.835-1.36-1.38-2.832-1.639-4.416
			c-0.259-1.583-0.105-3.197,0.461-4.841c0.566-1.645,1.423-3.016,2.568-4.115c1.145-1.1,2.447-1.934,3.909-2.504
			c1.46-0.569,3.032-0.852,4.718-0.846c1.683,0.006,3.348,0.292,4.991,0.858c1.575,0.543,3.033,1.315,4.376,2.313
			c1.34,1,2.452,2.168,3.332,3.506c0.879,1.337,1.444,2.815,1.691,4.433C107.572,210.755,107.4,212.42,106.811,214.132z
			 M114.891,183.35c-0.496,1.439-1.235,2.583-2.217,3.432c-0.983,0.851-2.102,1.48-3.354,1.891
			c-1.254,0.412-2.561,0.594-3.924,0.544c-1.362-0.048-2.627-0.272-3.791-0.674c-1.232-0.425-2.385-1.032-3.451-1.822
			c-1.07-0.788-1.978-1.716-2.723-2.777c-0.746-1.062-1.242-2.228-1.494-3.503c-0.25-1.273-0.127-2.631,0.369-4.069
			c0.873-2.533,2.567-4.23,5.087-5.086c2.516-0.856,5.178-0.802,7.987,0.167c2.877,0.991,5.066,2.59,6.568,4.792
			C115.449,178.447,115.764,180.817,114.891,183.35z"/>
	</g>
</g>
<g>
	<g>
		<path d="M364.588,335.43l-11.158,5.438l-19.268-39.534l-12.035,5.866c-0.037,0.67-0.375,1.724-1.017,3.158
			c-0.641,1.437-1.465,2.98-2.473,4.629c-1.008,1.652-2.108,3.187-3.303,4.6c-1.195,1.418-2.318,2.381-3.373,2.895l5.353,10.982
			c1.112-0.542,2.286-1.367,3.521-2.479c1.235-1.107,2.369-2.313,3.402-3.614c1.034-1.3,1.944-2.594,2.729-3.885
			c0.785-1.288,1.271-2.412,1.455-3.372l12.973,26.62l-12.475,6.08l5.182,10.63l35.668-17.385L364.588,335.43z"/>
	</g>
</g>
<g>
	<g>
		<rect x="403.745" y="83.363" transform="matrix(0.334 -0.9426 0.9426 0.334 199.8531 464.5702)" width="49.851" height="15.001"/>
	</g>
</g>
<g>
	<g>
		<rect x="460.731" y="120.109" transform="matrix(0.6989 -0.7153 0.7153 0.6989 54.9775 385.799)" width="49.851" height="15"/>
	</g>
</g>
<g>
	<g>
		<rect x="353.783" y="58.601" transform="matrix(0.9957 -0.0926 0.0926 0.9957 -6.1822 33.8136)" width="15" height="49.849"/>
	</g>
</g>
<g>
	<g>
		<path d="M180.219,66.625l-1.975,14.869c6.294,0.836,12.563,2.163,18.631,3.945l4.227-14.392
			C194.299,69.05,187.273,67.562,180.219,66.625z"/>
	</g>
</g>
<g>
	<g>
		<path d="M215.189,76.026l-5.752,13.854c19.906,8.263,37.447,21.669,50.728,38.765l11.846-9.203
			C257.139,100.297,237.49,85.285,215.189,76.026z"/>
	</g>
</g>
<g>
</g>
<g>
</g>
<g>
</g>
<g>
</g>
<g>
</g>
<g>
</g>
<g>
</g>
<g>
</g>
<g>
</g>
<g>
</g>
<g>
</g>
<g>
</g>
<g>
</g>
<g>
</g>
<g>
</g>
</svg>
