<?xml version="1.0" encoding="iso-8859-1"?>
<!-- Generator: Adobe Illustrator 19.0.0, SVG Export Plug-In . SVG Version: 6.00 Build 0)  -->
<svg version="1.1" id="Layer_1" xmlns="http://www.w3.org/2000/svg" xmlns:xlink="http://www.w3.org/1999/xlink" x="0px" y="0px"
	 viewBox="0 0 512 512" style="enable-background:new 0 0 512 512;" xml:space="preserve">
<g>
	<g>
		<path d="M478.103,408.515L285.128,76.623c-6.101-10.493-16.99-16.757-29.128-16.757s-23.026,6.264-29.128,16.757L33.895,408.515
			c-6.134,10.549-6.162,23.161-0.078,33.737c6.085,10.576,17.003,16.891,29.205,16.891h385.955c12.203,0,23.12-6.315,29.205-16.891
			C484.266,431.676,484.237,419.064,478.103,408.515z M405.104,312.757l19.611,33.727c-7.924-4.537-17.077-7.156-26.833-7.201
			C402.381,331.445,404.997,322.399,405.104,312.757z M357.888,231.553l19.06,32.781c-7.731-4.306-16.606-6.791-26.046-6.874
			C355.228,249.775,357.747,240.95,357.888,231.553z M390.144,312.145c0,21.903-17.819,39.722-39.722,39.722
			c-21.902,0-39.721-17.819-39.721-39.722c0-13.416,6.692-25.291,16.907-32.486c2.085-1.043,4.098-2.207,6.02-3.499
			c5.105-2.392,10.794-3.737,16.794-3.737C372.324,272.423,390.144,290.242,390.144,312.145z M310.665,150.338l18.874,32.46
			c-7.734-4.265-16.603-6.712-26.031-6.763C307.863,168.42,310.436,159.668,310.665,150.338z M342.935,230.726
			c-0.001,13.415-6.693,25.29-16.907,32.485c-2.085,1.043-4.098,2.207-6.02,3.499c-5.105,2.392-10.794,3.737-16.794,3.737
			c-6,0-11.69-1.345-16.795-3.737c-1.923-1.291-3.937-2.455-6.02-3.498c-10.214-7.195-16.907-19.07-16.907-32.486
			c0-21.902,17.82-39.721,39.722-39.721C325.115,191.005,342.935,208.824,342.935,230.726z M295.725,312.145
			c0,21.903-17.82,39.722-39.722,39.722s-39.722-17.819-39.722-39.722c0-13.416,6.692-25.291,16.907-32.486
			c2.085-1.042,4.098-2.206,6.021-3.498c5.105-2.392,10.794-3.737,16.794-3.737s11.69,1.345,16.795,3.737
			c1.923,1.291,3.936,2.455,6.02,3.498C289.032,286.854,295.725,298.729,295.725,312.145z M239.819,84.151
			c3.39-5.829,9.439-9.31,16.181-9.31c6.743,0,12.792,3.48,16.181,9.31l9.674,16.638c-7.703-4.149-16.507-6.509-25.852-6.509
			c-9.349,0-18.157,2.362-25.862,6.515L239.819,84.151z M256.003,109.254c21.903,0,39.722,17.82,39.722,39.722
			s-17.82,39.722-39.722,39.722s-39.722-17.82-39.722-39.722S234.1,109.254,256.003,109.254z M201.341,150.326
			c0.228,9.334,2.8,18.091,7.157,25.709c-9.432,0.05-18.306,2.5-26.042,6.769L201.341,150.326z M208.794,191.004
			c21.903,0,39.722,17.819,39.722,39.721c0,13.416-6.692,25.291-16.907,32.486c-2.085,1.043-4.097,2.207-6.02,3.498
			c-5.105,2.392-10.794,3.737-16.795,3.737c-6.001,0-11.69-1.345-16.795-3.737c-1.923-1.291-3.937-2.455-6.02-3.498
			c-10.214-7.195-16.907-19.07-16.907-32.486C169.072,208.823,186.891,191.004,208.794,191.004z M154.117,231.542
			c0.14,9.4,2.659,18.231,6.985,25.918c-9.444,0.082-18.323,2.57-26.055,6.879L154.117,231.542z M161.584,272.423
			c6,0.001,11.69,1.346,16.795,3.738c1.923,1.291,3.936,2.455,6.02,3.498c10.214,7.195,16.907,19.07,16.907,32.486
			c0,21.903-17.819,39.722-39.722,39.722c-21.903,0-39.722-17.819-39.722-39.722S139.681,272.423,161.584,272.423z M106.903,312.746
			c0.105,9.646,2.72,18.696,7.222,26.537c-9.758,0.044-18.914,2.664-26.839,7.201L106.903,312.746z M63.022,444.169
			c-6.779-0.001-12.844-3.508-16.224-9.384c-3.38-5.875-3.364-12.883,0.043-18.742l12.834-22.071c0,0.001,0,0.002,0,0.003
			c0,22.451,13.601,41.778,32.992,50.195H63.022z M74.649,393.974c0-21.903,17.82-39.722,39.722-39.722s39.722,17.819,39.722,39.722
			s-17.819,39.722-39.722,39.722S74.649,415.877,74.649,393.974z M136.076,444.168c10.709-4.648,19.644-12.627,25.505-22.623
			c5.86,9.995,14.796,17.973,25.505,22.623H136.076z M169.068,393.974c0-21.903,17.819-39.722,39.722-39.722
			c21.903,0,39.722,17.819,39.722,39.722s-17.819,39.722-39.722,39.722C186.887,433.697,169.068,415.877,169.068,393.974z
			 M230.495,444.168c10.709-4.648,19.644-12.627,25.505-22.623c5.86,9.995,14.796,17.973,25.505,22.623H230.495z M263.487,393.974
			c0-21.903,17.819-39.722,39.722-39.722c21.903,0,39.722,17.819,39.722,39.722s-17.819,39.722-39.722,39.722
			C281.307,433.697,263.487,415.877,263.487,393.974z M324.914,444.168c10.71-4.648,19.644-12.627,25.505-22.623
			c5.86,9.995,14.796,17.973,25.505,22.623H324.914z M357.906,393.973c0-21.903,17.82-39.722,39.722-39.722
			s39.722,17.819,39.722,39.722c0,21.903-17.819,39.722-39.722,39.722S357.906,415.876,357.906,393.973z M465.201,434.785
			c-3.38,5.876-9.445,9.383-16.224,9.383h-29.645c19.392-8.417,32.992-27.744,32.992-50.195c0-0.001,0-0.002,0-0.002l12.834,22.071
			C468.566,421.902,468.582,428.91,465.201,434.785z"/>
	</g>
</g>
<g>
	<g>
		<path d="M504.786,404.391L301.474,54.726C291.949,38.344,274.949,28.565,256,28.565s-35.949,9.78-45.475,26.162L7.214,404.391
			c-9.575,16.47-9.621,36.16-0.121,52.673c9.5,16.513,26.545,26.371,45.595,26.371h406.624c19.05,0,36.095-9.859,45.595-26.371
			C514.407,440.551,514.362,420.861,504.786,404.391z M491.926,449.596c-6.796,11.812-18.989,18.864-32.615,18.864H52.688
			c-13.626,0-25.819-7.052-32.615-18.864c-6.796-11.812-6.763-25.897,0.087-37.678L223.472,62.254
			c6.814-11.719,18.974-18.714,32.529-18.714s25.715,6.995,32.529,18.714L491.841,411.92
			C498.69,423.699,498.723,437.785,491.926,449.596z"/>
	</g>
</g>
<g>
</g>
<g>
</g>
<g>
</g>
<g>
</g>
<g>
</g>
<g>
</g>
<g>
</g>
<g>
</g>
<g>
</g>
<g>
</g>
<g>
</g>
<g>
</g>
<g>
</g>
<g>
</g>
<g>
</g>
</svg>
