<svg clip-rule="evenodd" fill-rule="evenodd" stroke-linejoin="round" stroke-miterlimit="2" viewBox="0 0 512 512" xmlns="http://www.w3.org/2000/svg" xmlns:serif="http://www.serif.com/"><g transform="translate(-1124 -1124)"><g id="Icons"><path d="m1260.27 1183.89c-27.27 2.52-48.65 25.5-48.65 53.43 0 27.92 21.38 50.9 48.65 53.42v12.33c0 41.71 21.2 78.51 53.4 100.2 27.95 34.43 40.06 72.99 38.15 115.22-.1.93-.15 1.88-.15 2.84v.09c.01 7.11 2.62 13.61 6.92 18.62h-24.93c-17.03 0-31.15 12.57-33.57 28.93h-28.24c-2.76 0-5 2.24-5 5v46.03c0 2.76 2.24 5 5 5h216.99c2.76 0 5-2.24 5-5v-46.03c0-2.76-2.24-5-5-5h-26.93c-2.42-16.36-16.54-28.93-33.57-28.93h-26.25c4.31-5.01 6.91-11.51 6.92-18.62 0-.03 0-.06 0-.09 0-.96-.05-1.91-.14-2.84-1.88-41.49 9.78-79.44 36.7-113.42 33.74-21.42 56.16-59.11 56.16-102v-12.33c27.27-2.52 48.65-25.5 48.65-53.42 0-27.93-21.38-50.91-48.65-53.43v-43.89c0-2.76-2.24-5-5-5h-231.46c-2.76 0-5 2.24-5 5zm223.57 395.08v36.03h-206.99v-36.03zm-32.09-10h-141.5c2.3-10.81 11.91-18.93 23.41-18.93h94.68c11.5 0 21.11 8.12 23.41 18.93zm-52.86-49.71c-1.05-9.32-8.96-16.56-18.55-16.56s-17.5 7.24-18.55 16.56c-.03.74-.08 1.49-.12 2.25.08 10.24 8.41 18.53 18.67 18.53s18.6-8.29 18.67-18.53c-.04-.76-.08-1.51-.12-2.25zm-64.85-104.95c17.04 26.38 26.05 54.85 27.7 85.25 5.01-4.28 11.51-6.86 18.6-6.86 7.1 0 13.6 2.58 18.61 6.86 1.63-30.11 10.49-58.34 27.22-84.51-13.96 5.64-29.21 8.75-45.17 8.75-16.65 0-32.52-3.38-46.96-9.49zm-63.77-253.01h173.34c2.76 0 5 2.24 5 5s-2.24 5-5 5h-173.34v131.77c0 38.47 19.66 72.38 49.48 92.23.06.04.12.08.18.12 17.51 11.61 38.51 18.38 61.07 18.38 21.18 0 40.98-5.97 57.82-16.3.31-.38.61-.76.92-1.14.94-1.14 2.28-1.77 3.65-1.83 29.17-19.94 48.34-53.48 48.34-91.46v-131.77h-19.13c-2.76 0-5-2.24-5-5s2.24-5 5-5h19.13v-16.3h-221.46zm67.88 60.58c-.03.08-.05.15-.07.23-2.85 8.68-3.31 18.26-.81 27.75 1.19 4.51 2.97 8.7 5.24 12.52-6.24-.86-12.75-.53-19.22 1.17-13.46 3.56-24.13 12.39-30.38 23.7l-.02.01c-.78.78-1.24 1.75-1.4 2.76-4.77 10.08-6.15 21.83-3.08 33.45 6.91 26.16 33.75 41.79 59.91 34.88 3.43-.91 6.68-2.15 9.72-3.7.03-.01.05-.02.07-.03 8.63-4.41 15.58-11.19 20.23-19.31 2.04 5.41 4.96 10.28 8.56 14.49.06.17.13.34.2.52.55 1.19 1.52 2.07 2.65 2.53 11.94 11.76 29.6 17.1 46.96 12.52 23.74-6.27 38.81-28.97 36.23-52.67-.01-.05-.01-.09-.02-.14-.26-2.37-.7-4.74-1.33-7.11-5.99-22.67-26.96-37.44-49.48-36.47 4.3-5.1 7.54-11.04 9.48-17.44.02-.07.04-.15.06-.22 2.5-8.34 2.8-17.46.42-26.49-.08-.3-.16-.6-.25-.9.01-.12.02-.24.02-.37 0-1.23-.45-2.36-1.19-3.23-8.64-23.42-33.87-36.89-58.5-30.39-16.59 4.38-28.94 16.79-34 31.94zm124.96 99.03c-1.22 16.12-12.46 30.43-28.96 34.79-11.86 3.13-23.89.44-33.07-6.3zm-164.71-21.07 48.52 48.52c-.38.11-.77.22-1.15.32-20.82 5.5-42.19-6.94-47.69-27.77-1.9-7.18-1.66-14.43.32-21.07zm15.9-21.46 54.07 54.06c-3.01 4.57-6.99 8.52-11.72 11.51l-53.83-53.83c2.92-4.63 6.81-8.66 11.48-11.74zm141.56 16.78c2.72 3.77 4.81 8.09 6.06 12.85.2.73.37 1.47.52 2.2l-69.06 31.72c-3.14-4.03-5.53-8.75-6.92-14-.07-.27-.14-.54-.2-.8zm-82.9 27.73-49.09-49.09c.65-.21 1.31-.4 1.98-.58 20.82-5.5 42.19 6.95 47.69 27.77 1.97 7.48 1.63 15.04-.58 21.9zm75.61-35.38-63.38 29.11c.58-16.76 12-31.88 29.04-36.38 12.41-3.28 25.02-.18 34.34 7.27zm-70.61-1.6c1.44 2.42 2.68 4.99 3.7 7.7 1.47-2.57 3.18-5.01 5.09-7.28-2.96.13-5.9-.02-8.79-.42zm-117.69-91.97c-21.74 2.49-38.65 20.97-38.65 43.38 0 22.4 16.91 40.88 38.65 43.37zm241.46 0v86.75c21.74-2.49 38.65-20.97 38.65-43.37 0-22.41-16.91-40.89-38.65-43.38zm-82.26 61.05c-4.87 9.58-13.64 17.13-24.84 20.08-18.11 4.79-36.64-4.01-44.77-20.08zm3.22-26.43c1.29 5.56 1.31 11.14.25 16.43h-76.54c-1.12-5.59-.98-11.17.24-16.43zm-3.81-10h-68.41c4.97-9.04 13.48-16.11 24.24-18.95 17.68-4.67 35.76 3.6 44.17 18.95z"/></g></g></svg>