<svg id="Glyph" height="512" viewBox="0 0 512 512" width="512" xmlns="http://www.w3.org/2000/svg"><g id="Pool_Cue" data-name="Pool Cue"><path d="m476.50587 35.49463a17.87922 17.87922 0 0 0 -25.21875-.042l-22.56836 22.0083-382 372.62988c-.86766.84562.13729-.4383-15.73633 25.896a5 5 0 0 0 .752 6.10888l18.1709 18.16993a4.99981 4.99981 0 0 0 6.1084.75146c26.20923-15.798 25.04412-14.86226 25.89551-15.73584l372.63081-382.00145 21.96875-22.52735a17.893 17.893 0 0 0 -.00293-25.25781zm-313.21631 294.85449 268.87719-262.28168 11.76612 11.766-262.2815 268.87664zm-109.07471 140.08447-12.64844-12.64795 9.6355-16.053 19.06543 19.06546zm396.70068-397.75927-11.58984-11.58942 9.02624-8.80267 11.36561 11.366z"/></g></svg>