<svg id="Layer_1" enable-background="new 0 0 512 512" height="512" viewBox="0 0 512 512" width="512" xmlns="http://www.w3.org/2000/svg"><g id="_x30_9_Billiard"><g><path d="m227.478 130.054c2.547 0 5.049-.184 7.52-.471-8.046 10.821-12.869 24.17-12.869 38.658 0 35.857 29.189 65.03 65.066 65.03 35.857 0 65.024-29.173 65.024-65.03 0-14.49-4.821-27.841-12.864-38.663 2.484.289 4.998.476 7.557.476 35.857 0 65.024-29.168 65.024-65.024s-29.167-65.03-65.023-65.03c-26.735 0-49.738 16.21-59.734 39.305-9.99-23.094-32.981-39.305-59.701-39.305-35.877 0-65.066 29.173-65.066 65.03s29.189 65.024 65.066 65.024zm114.065 38.187c0 29.971-24.382 54.353-54.348 54.353-29.991 0-54.389-24.382-54.389-54.353 0-30.239 24.867-54.348 54.389-54.348 29.236 0 54.348 23.863 54.348 54.348zm-61.901-64.549c2.972-3.998 5.535-8.312 7.537-12.939 2.002 4.625 4.565 8.938 7.538 12.934-5.379-.623-9.598-.632-15.075.005zm67.271-93.015c29.966 0 54.348 24.382 54.348 54.353 0 29.966-24.382 54.348-54.348 54.348-29.571 0-54.389-24.157-54.389-54.348-.001-29.971 24.397-54.353 54.389-54.353zm-119.435 0c29.971 0 54.353 24.382 54.353 54.353 0 30.111-24.716 54.348-54.353 54.348-29.991 0-54.389-24.382-54.389-54.348 0-29.971 24.398-54.353 54.389-54.353z"/><path d="m227.478 98.024c18.194 0 33-14.801 33-32.994s-14.806-33-33-33c-18.215 0-33.037 14.806-33.037 33s14.822 32.994 33.037 32.994zm0-55.317c12.308 0 22.323 10.015 22.323 22.323s-10.015 22.318-22.323 22.318c-12.33 0-22.36-10.01-22.36-22.318s10.03-22.323 22.36-22.323z"/><path d="m346.913 98.024c18.194 0 32.994-14.801 32.994-32.994s-14.801-33-32.994-33c-18.221 0-33.042 14.806-33.042 33s14.821 32.994 33.042 32.994zm0-55.317c12.308 0 22.318 10.015 22.318 22.323s-10.01 22.318-22.318 22.318c-12.335 0-22.365-10.01-22.365-22.318s10.03-22.323 22.365-22.323z"/><path d="m287.195 135.246c-18.215 0-33.037 14.806-33.037 33s14.821 32.994 33.037 32.994c18.194 0 33-14.801 33-32.994s-14.805-33-33-33zm0 55.318c-12.33 0-22.36-10.01-22.36-22.318s10.03-22.323 22.36-22.323c12.308 0 22.323 10.015 22.323 22.323s-10.014 22.318-22.323 22.318z"/><path d="m416.014 230.888c-35.857 0-65.03 29.168-65.03 65.024s29.173 65.024 65.03 65.024c35.877 0 65.066-29.168 65.066-65.024s-29.189-65.024-65.066-65.024zm0 119.372c-29.971 0-54.353-24.382-54.353-54.348s24.382-54.348 54.353-54.348c29.991 0 54.389 24.382 54.389 54.348s-24.398 54.348-54.389 54.348z"/><path d="m59.113 113.679c-6.663-6.053-16.87-5.813-23.256.553-6.36 6.376-6.605 16.583-.553 23.251 12.087 13.301 282.089 310.42 331.055 364.304 12.004 13.204 32.513 13.65 45.089 1.073l13.044-13.044c12.543-12.543 12.147-33.065-1.08-45.089-75.197-68.331-240.87-218.883-364.299-331.048zm17.047 52.888 12.033-12.03 244.133 221.851-34.312 34.312zm-32.75-44.781c2.339-2.339 6.08-2.425 8.519-.204l28.353 25.765-11.306 11.311-25.769-28.355c-2.221-2.444-2.128-6.187.203-8.517zm373.531 360.483-13.044 13.044c-8.132 8.132-21.631 8.098-29.637-.709l-69.059-75.994 35.034-35.034 75.991 69.055c8.633 7.837 9.024 21.33.715 29.638z"/></g></g></svg>