<svg viewBox="0 0 520 520" xmlns="http://www.w3.org/2000/svg"><g id="_14._Glove" data-name="14. Glove"><path d="m398.019 223.207c-33.041 0-64.529 21.993-74.872 52.3-6.249 18.336-15.5 27.487-18.954 28.781a9.52 9.52 0 0 1 -1.056-1.9c-20.572-46.906 13.48-175.644 32.17-227.168a27.34 27.34 0 0 0 -14.014-33.835l-4.3-2.1a28.993 28.993 0 0 0 -22.684-1.123 28.232 28.232 0 0 0 -16.394 16l-45.587 130.364c-1.02 2.48-5.364 1.851-5.783-.328l-21.315-130.153a29.277 29.277 0 0 0 -16.264-20.964 30.569 30.569 0 0 0 -26.867.058 29.285 29.285 0 0 0 -16.445 29.827l16.592 148.27-61.928 75.642a45.091 45.091 0 0 0 -9.4 37.738l24.316 118.811c-.014.2-.119.371-.119.574v36.8a9.325 9.325 0 0 0 9.444 9.2h151.11a9.325 9.325 0 0 0 9.445-9.2v-34.62c4.13-7.461 20.467-35.162 42.836-49.733 30.579-19.922 49.975-75.965 50.593-77.834 7.77-18.983 21.775-40.208 28.886-40.208 13.079 0 22.569-10.44 22.569-24.823.002-15.094-10.983-30.376-31.979-30.376zm-131.792 248.393h-132.221v-18.4h132.221zm141.2-211.594c-23.412 0-41.457 39.643-46.617 52.292-4.972 14.537-22.459 55.235-43.363 68.859-23.813 15.507-41 42.419-47.475 53.644h-137.244l-23.288-113.779a27.119 27.119 0 0 1 5.645-22.672l64.353-78.606a9.034 9.034 0 0 0 2.006-6.734l-17.03-152.177a11.008 11.008 0 0 1 6.156-11.249 11.4 11.4 0 0 1 10-.022 10.9 10.9 0 0 1 6.05 7.623l21.314 130.153a22.082 22.082 0 0 0 42.108 3.562l45.58-130.364a9.2 9.2 0 0 1 5.4-5.179 9.5 9.5 0 0 1 7.5.377l4.3 2.1a9.1 9.1 0 0 1 4.678 11.255c-13.12 36.17-56.962 183-31.728 240.532 5.424 12.376 14.854 13.292 18.663 13.2 15.748-.638 29.754-21.311 36.639-41.511 7.848-23 31.8-39.7 56.947-39.7 12.46 0 13.092 9.977 13.092 11.976-.002.064-.043 6.42-3.682 6.42z"/></g></svg>