<?xml version="1.0" encoding="iso-8859-1"?>
<!-- Generator: Adobe Illustrator 19.0.0, SVG Export Plug-In . SVG Version: 6.00 Build 0)  -->
<svg version="1.1" id="Layer_1" xmlns="http://www.w3.org/2000/svg" xmlns:xlink="http://www.w3.org/1999/xlink" x="0px" y="0px"
	 viewBox="0 0 512 512" style="enable-background:new 0 0 512 512;" xml:space="preserve">
<g>
	<g>
		<path d="M500.055,256L512,179.445l-14.559-2.023v-32.38h-14.698l-4.996-32.019l-181.102,25.178v-7.364h-81.289v7.365
			l-181.102-25.18l-4.996,32.019H14.559v32.38L0,179.445l11.945,76.555V256v0.001L0,332.555l14.559,2.023v32.38h14.698l4.996,32.019
			l181.102-25.179v7.364h81.289v-7.365l181.102,25.18l4.996-32.019h14.698v-32.38L512,332.555L500.055,256L500.055,256z
			 M46.806,129.921l108.756,15.12H44.447L46.806,129.921z M46.806,382.079l-2.359-15.12h111.118L46.806,382.079z M215.355,293.208
			c-0.062-0.067-0.124-0.135-0.186-0.202c-0.49-0.542-0.972-1.087-1.439-1.643c-0.022-0.027-0.046-0.053-0.068-0.079
			c-0.486-0.581-0.957-1.175-1.418-1.774c-0.112-0.146-0.223-0.294-0.334-0.441c-0.406-0.539-0.802-1.084-1.188-1.637
			c-0.052-0.074-0.106-0.147-0.157-0.221c-0.425-0.617-0.835-1.246-1.235-1.879c-0.095-0.152-0.189-0.304-0.283-0.457
			c-0.339-0.55-0.668-1.106-0.988-1.667c-0.062-0.109-0.127-0.217-0.188-0.326c-0.364-0.651-0.713-1.311-1.051-1.977
			c-0.077-0.152-0.151-0.304-0.226-0.457c-0.28-0.567-0.551-1.139-0.812-1.716c-0.062-0.136-0.126-0.272-0.186-0.409
			c-0.302-0.682-0.589-1.371-0.863-2.066c-0.057-0.145-0.111-0.292-0.167-0.438c-0.226-0.589-0.442-1.184-0.649-1.782
			c-0.055-0.159-0.111-0.317-0.165-0.476c-0.237-0.709-0.461-1.425-0.67-2.145c-0.038-0.132-0.073-0.266-0.11-0.398
			c-0.173-0.617-0.336-1.238-0.488-1.863c-0.043-0.177-0.087-0.353-0.129-0.53c-0.171-0.733-0.33-1.472-0.471-2.214
			c-0.021-0.11-0.038-0.221-0.058-0.331c-0.12-0.652-0.227-1.308-0.323-1.966c-0.028-0.191-0.056-0.382-0.082-0.573
			c-0.103-0.755-0.195-1.514-0.266-2.276c-0.007-0.069-0.01-0.139-0.017-0.208c-0.064-0.702-0.111-1.409-0.148-2.117
			c-0.01-0.201-0.02-0.401-0.029-0.602c-0.032-0.774-0.054-1.552-0.054-2.332c0-0.78,0.022-1.558,0.054-2.332
			c0.008-0.201,0.018-0.402,0.029-0.602c0.037-0.708,0.085-1.414,0.148-2.117c0.006-0.069,0.01-0.139,0.017-0.208
			c0.072-0.762,0.164-1.521,0.266-2.276c0.026-0.191,0.054-0.382,0.082-0.573c0.097-0.658,0.204-1.315,0.323-1.966
			c0.02-0.11,0.037-0.221,0.058-0.331c0.141-0.743,0.3-1.481,0.471-2.214c0.041-0.177,0.085-0.354,0.129-0.53
			c0.152-0.624,0.314-1.246,0.488-1.863c0.037-0.132,0.072-0.266,0.11-0.398c0.208-0.72,0.433-1.436,0.67-2.145
			c0.053-0.159,0.11-0.317,0.165-0.476c0.206-0.598,0.422-1.192,0.649-1.782c0.056-0.146,0.11-0.292,0.167-0.438
			c0.274-0.695,0.561-1.384,0.863-2.066c0.061-0.137,0.125-0.272,0.186-0.409c0.261-0.577,0.532-1.149,0.812-1.716
			c0.075-0.152,0.149-0.305,0.226-0.457c0.337-0.666,0.686-1.326,1.051-1.977c0.061-0.109,0.126-0.217,0.188-0.326
			c0.319-0.561,0.648-1.117,0.988-1.667c0.094-0.152,0.187-0.305,0.283-0.457c0.399-0.634,0.809-1.262,1.235-1.879
			c0.051-0.074,0.105-0.147,0.157-0.221c0.385-0.553,0.781-1.098,1.188-1.637c0.111-0.147,0.222-0.295,0.334-0.441
			c0.461-0.599,0.93-1.193,1.418-1.774c0.022-0.027,0.046-0.053,0.068-0.079c0.467-0.555,0.948-1.101,1.439-1.639
			c0.062-0.068,0.124-0.135,0.186-0.202V293.208z M215.355,198.89c-0.049,0.035-0.097,0.072-0.146,0.107
			c-0.209,0.149-0.413,0.304-0.62,0.455c-0.382,0.279-0.764,0.559-1.141,0.845c-0.23,0.175-0.455,0.355-0.682,0.532
			c-0.346,0.27-0.691,0.54-1.032,0.816c-0.237,0.193-0.471,0.389-0.705,0.585c-0.322,0.269-0.644,0.537-0.962,0.811
			c-0.238,0.206-0.473,0.415-0.709,0.624c-0.304,0.27-0.607,0.541-0.907,0.815c-0.237,0.218-0.471,0.439-0.706,0.66
			c-0.29,0.274-0.578,0.549-0.862,0.827c-0.232,0.227-0.462,0.455-0.69,0.685c-0.278,0.28-0.554,0.561-0.828,0.845
			c-0.226,0.235-0.451,0.471-0.673,0.709c-0.267,0.285-0.53,0.572-0.792,0.861c-0.22,0.244-0.44,0.487-0.656,0.734
			c-0.255,0.29-0.507,0.583-0.757,0.878c-0.213,0.251-0.427,0.502-0.636,0.756c-0.246,0.298-0.488,0.599-0.729,0.901
			c-0.204,0.255-0.408,0.509-0.608,0.767c-0.239,0.308-0.472,0.62-0.706,0.932c-0.193,0.258-0.388,0.515-0.578,0.775
			c-0.233,0.32-0.459,0.644-0.686,0.969c-0.181,0.258-0.365,0.514-0.542,0.774c-0.23,0.338-0.453,0.68-0.677,1.022
			c-0.166,0.252-0.335,0.502-0.497,0.757c-0.242,0.379-0.475,0.763-0.709,1.148c-0.135,0.221-0.275,0.439-0.407,0.662
			c-0.36,0.604-0.711,1.214-1.053,1.828c-0.083,0.15-0.161,0.303-0.243,0.453c-0.257,0.472-0.513,0.945-0.76,1.423
			c-0.129,0.25-0.25,0.503-0.376,0.754c-0.192,0.383-0.385,0.765-0.569,1.152c-0.133,0.278-0.259,0.56-0.388,0.84
			c-0.168,0.364-0.337,0.727-0.498,1.095c-0.129,0.293-0.252,0.59-0.377,0.885c-0.152,0.359-0.305,0.718-0.451,1.08
			c-0.122,0.302-0.239,0.607-0.357,0.912c-0.139,0.358-0.278,0.717-0.411,1.078c-0.114,0.31-0.224,0.622-0.334,0.935
			c-0.127,0.36-0.253,0.72-0.374,1.084c-0.105,0.315-0.206,0.631-0.307,0.948c-0.116,0.364-0.23,0.728-0.34,1.095
			c-0.096,0.319-0.188,0.638-0.279,0.96c-0.105,0.368-0.207,0.738-0.306,1.109c-0.086,0.321-0.169,0.644-0.251,0.968
			c-0.094,0.373-0.184,0.747-0.272,1.123c-0.076,0.324-0.151,0.649-0.222,0.976c-0.083,0.379-0.161,0.758-0.238,1.14
			c-0.065,0.324-0.13,0.648-0.191,0.974c-0.073,0.388-0.14,0.778-0.206,1.169c-0.054,0.321-0.11,0.642-0.16,0.965
			c-0.062,0.397-0.117,0.796-0.172,1.196c-0.044,0.319-0.09,0.637-0.129,0.958c-0.051,0.411-0.094,0.824-0.138,1.238
			c-0.033,0.309-0.068,0.617-0.097,0.927c-0.04,0.436-0.072,0.874-0.104,1.313c-0.021,0.29-0.047,0.579-0.065,0.87
			c-0.03,0.488-0.05,0.979-0.07,1.469c-0.01,0.242-0.025,0.483-0.033,0.726c-0.023,0.734-0.035,1.471-0.035,2.21
			c0,0.739,0.012,1.475,0.035,2.21c0.007,0.243,0.023,0.484,0.033,0.726c0.02,0.49,0.04,0.981,0.07,1.469
			c0.018,0.291,0.044,0.58,0.065,0.87c0.032,0.438,0.064,0.877,0.104,1.313c0.029,0.31,0.064,0.618,0.097,0.927
			c0.044,0.413,0.087,0.826,0.138,1.238c0.04,0.32,0.085,0.638,0.129,0.958c0.055,0.399,0.11,0.798,0.172,1.196
			c0.05,0.322,0.105,0.643,0.16,0.965c0.066,0.39,0.133,0.78,0.206,1.169c0.061,0.325,0.126,0.649,0.191,0.974
			c0.077,0.38,0.155,0.76,0.238,1.14c0.071,0.326,0.146,0.651,0.222,0.976c0.088,0.375,0.178,0.749,0.272,1.123
			c0.081,0.323,0.165,0.645,0.251,0.968c0.099,0.37,0.201,0.74,0.306,1.109c0.091,0.32,0.184,0.64,0.279,0.96
			c0.11,0.366,0.224,0.73,0.34,1.095c0.101,0.317,0.202,0.633,0.307,0.949c0.121,0.363,0.247,0.723,0.374,1.084
			c0.11,0.312,0.219,0.624,0.334,0.935c0.133,0.361,0.272,0.719,0.411,1.078c0.118,0.304,0.234,0.609,0.357,0.912
			c0.146,0.362,0.299,0.72,0.451,1.08c0.125,0.295,0.248,0.592,0.377,0.885c0.161,0.367,0.331,0.73,0.498,1.095
			c0.129,0.28,0.255,0.562,0.388,0.841c0.184,0.386,0.378,0.768,0.569,1.152c0.126,0.251,0.247,0.505,0.376,0.754
			c0.246,0.478,0.502,0.951,0.76,1.423c0.082,0.151,0.16,0.303,0.243,0.453c0.341,0.614,0.692,1.224,1.053,1.828
			c0.133,0.223,0.272,0.441,0.407,0.662c0.234,0.384,0.467,0.768,0.709,1.148c0.162,0.254,0.331,0.504,0.497,0.757
			c0.224,0.341,0.447,0.683,0.677,1.022c0.177,0.26,0.361,0.516,0.542,0.774c0.227,0.324,0.454,0.648,0.686,0.969
			c0.19,0.26,0.385,0.517,0.578,0.775c0.234,0.312,0.467,0.624,0.706,0.932c0.2,0.258,0.404,0.512,0.608,0.767
			c0.241,0.302,0.483,0.603,0.729,0.901c0.21,0.254,0.423,0.505,0.636,0.756c0.25,0.294,0.502,0.587,0.757,0.878
			c0.217,0.246,0.436,0.49,0.656,0.734c0.261,0.289,0.525,0.576,0.792,0.862c0.223,0.238,0.447,0.474,0.673,0.709
			c0.273,0.284,0.549,0.566,0.828,0.846c0.229,0.23,0.458,0.458,0.69,0.685c0.285,0.278,0.573,0.553,0.862,0.827
			c0.234,0.221,0.468,0.442,0.706,0.66c0.299,0.275,0.602,0.545,0.907,0.815c0.235,0.209,0.47,0.418,0.709,0.624
			c0.317,0.274,0.638,0.542,0.962,0.811c0.234,0.195,0.468,0.392,0.705,0.585c0.34,0.276,0.685,0.546,1.032,0.816
			c0.227,0.177,0.452,0.357,0.682,0.532c0.375,0.286,0.758,0.565,1.141,0.845c0.207,0.151,0.411,0.306,0.62,0.455
			c0.049,0.035,0.097,0.072,0.146,0.107v17.6H77.333c-2.781-11.295-11.691-20.206-22.987-22.988V204.278
			c11.295-2.781,20.206-11.693,22.987-22.988h138.023V198.89z M215.355,166.283H63.23v7.504c0,9.037-7.352,16.389-16.388,16.389
			h-7.504v131.649h7.504c9.037,0,16.388,7.352,16.388,16.389v7.504h152.125v6.232H29.567v-15.286v-64.491v-0.582v-31.185v-0.582
			v-64.489v-15.285h185.788V166.283z M281.636,166.282v15.008v8.066v17.702v97.882v17.702v8.067v15.008v6.232h-0.603v14.204h-50.669
			v-20.436v-15.008v-8.067v-17.702v-97.882v-17.702v-8.066v-15.008v-6.232h0.035v-14.204h51.237V166.282z M465.194,129.921
			l2.359,15.12H356.436L465.194,129.921z M296.645,218.791c0.062,0.067,0.124,0.134,0.186,0.202c0.49,0.542,0.971,1.088,1.439,1.643
			c0.022,0.027,0.046,0.053,0.068,0.079c0.486,0.581,0.956,1.175,1.418,1.774c0.112,0.146,0.223,0.294,0.334,0.441
			c0.406,0.539,0.802,1.084,1.188,1.637c0.052,0.074,0.106,0.147,0.157,0.221c0.425,0.617,0.835,1.246,1.235,1.879
			c0.095,0.152,0.189,0.304,0.283,0.457c0.339,0.55,0.668,1.106,0.988,1.667c0.062,0.109,0.127,0.217,0.188,0.326
			c0.364,0.651,0.713,1.311,1.051,1.977c0.077,0.152,0.151,0.304,0.226,0.457c0.28,0.567,0.551,1.139,0.813,1.716
			c0.062,0.136,0.126,0.272,0.186,0.409c0.302,0.682,0.589,1.371,0.863,2.066c0.057,0.145,0.111,0.292,0.167,0.438
			c0.226,0.589,0.442,1.184,0.649,1.782c0.055,0.159,0.111,0.317,0.165,0.476c0.237,0.709,0.461,1.425,0.67,2.145
			c0.038,0.132,0.072,0.265,0.109,0.396c0.174,0.618,0.336,1.241,0.489,1.866c0.043,0.176,0.087,0.352,0.128,0.528
			c0.171,0.734,0.33,1.473,0.471,2.216c0.021,0.108,0.037,0.217,0.057,0.326c0.12,0.653,0.227,1.311,0.324,1.97
			c0.028,0.191,0.056,0.382,0.082,0.573c0.103,0.755,0.195,1.514,0.266,2.276c0.007,0.069,0.01,0.139,0.017,0.208
			c0.064,0.702,0.111,1.409,0.148,2.117c0.01,0.201,0.02,0.401,0.029,0.602c0.032,0.774,0.054,1.552,0.054,2.332
			c0,0.78-0.022,1.558-0.054,2.332c-0.008,0.201-0.018,0.402-0.029,0.602c-0.037,0.708-0.085,1.414-0.148,2.117
			c-0.006,0.069-0.01,0.139-0.017,0.208c-0.072,0.762-0.164,1.521-0.266,2.276c-0.026,0.191-0.054,0.382-0.082,0.573
			c-0.097,0.66-0.204,1.317-0.324,1.97c-0.02,0.108-0.037,0.217-0.057,0.326c-0.141,0.743-0.3,1.482-0.471,2.216
			c-0.041,0.177-0.085,0.352-0.128,0.528c-0.152,0.625-0.315,1.248-0.489,1.866c-0.037,0.132-0.071,0.265-0.109,0.396
			c-0.208,0.72-0.433,1.436-0.67,2.145c-0.053,0.159-0.11,0.317-0.165,0.476c-0.206,0.598-0.422,1.192-0.649,1.782
			c-0.056,0.146-0.11,0.292-0.167,0.438c-0.274,0.695-0.561,1.384-0.863,2.066c-0.061,0.137-0.125,0.272-0.186,0.409
			c-0.261,0.577-0.532,1.149-0.813,1.716c-0.075,0.152-0.149,0.305-0.226,0.457c-0.337,0.666-0.686,1.326-1.051,1.977
			c-0.061,0.109-0.126,0.217-0.188,0.326c-0.319,0.561-0.648,1.117-0.988,1.667c-0.094,0.152-0.187,0.305-0.283,0.457
			c-0.399,0.634-0.809,1.262-1.235,1.879c-0.051,0.074-0.105,0.147-0.157,0.221c-0.385,0.553-0.781,1.098-1.188,1.637
			c-0.111,0.147-0.222,0.295-0.334,0.441c-0.461,0.599-0.93,1.193-1.418,1.774c-0.022,0.027-0.046,0.053-0.068,0.079
			c-0.467,0.556-0.949,1.101-1.439,1.639c-0.062,0.068-0.124,0.135-0.186,0.202V218.791z M296.645,313.11
			c0.049-0.035,0.097-0.072,0.146-0.107c0.209-0.149,0.413-0.304,0.62-0.455c0.382-0.279,0.764-0.559,1.141-0.846
			c0.23-0.175,0.455-0.355,0.682-0.532c0.346-0.27,0.691-0.54,1.032-0.816c0.237-0.193,0.471-0.389,0.705-0.585
			c0.322-0.269,0.644-0.537,0.962-0.811c0.238-0.206,0.473-0.415,0.709-0.624c0.304-0.27,0.607-0.541,0.906-0.815
			c0.237-0.218,0.471-0.439,0.706-0.66c0.29-0.274,0.578-0.549,0.862-0.827c0.232-0.227,0.462-0.455,0.69-0.685
			c0.278-0.28,0.554-0.561,0.828-0.845c0.226-0.235,0.451-0.471,0.673-0.709c0.267-0.285,0.53-0.572,0.792-0.861
			c0.22-0.244,0.44-0.487,0.656-0.734c0.255-0.29,0.507-0.583,0.757-0.878c0.213-0.251,0.427-0.502,0.636-0.756
			c0.246-0.298,0.488-0.599,0.729-0.902c0.204-0.255,0.408-0.509,0.608-0.767c0.239-0.308,0.472-0.62,0.706-0.932
			c0.193-0.258,0.388-0.515,0.578-0.775c0.233-0.32,0.459-0.644,0.686-0.969c0.181-0.258,0.365-0.514,0.542-0.774
			c0.23-0.338,0.453-0.68,0.677-1.022c0.166-0.252,0.335-0.502,0.497-0.757c0.242-0.379,0.475-0.763,0.709-1.148
			c0.135-0.221,0.275-0.439,0.407-0.662c0.36-0.604,0.711-1.214,1.053-1.828c0.083-0.15,0.161-0.303,0.243-0.453
			c0.257-0.472,0.513-0.945,0.76-1.423c0.129-0.25,0.25-0.503,0.376-0.754c0.192-0.383,0.385-0.765,0.569-1.152
			c0.133-0.278,0.259-0.56,0.388-0.84c0.168-0.364,0.337-0.727,0.498-1.095c0.129-0.293,0.252-0.59,0.377-0.885
			c0.152-0.359,0.305-0.718,0.451-1.08c0.122-0.302,0.239-0.607,0.357-0.913c0.139-0.358,0.278-0.717,0.411-1.078
			c0.114-0.31,0.224-0.622,0.334-0.935c0.127-0.36,0.253-0.72,0.374-1.084c0.105-0.315,0.206-0.631,0.307-0.948
			c0.116-0.364,0.23-0.728,0.34-1.095c0.096-0.319,0.188-0.638,0.279-0.96c0.105-0.368,0.207-0.738,0.306-1.109
			c0.086-0.321,0.169-0.644,0.251-0.968c0.094-0.373,0.184-0.747,0.272-1.123c0.076-0.324,0.151-0.649,0.222-0.976
			c0.083-0.379,0.161-0.758,0.238-1.14c0.065-0.324,0.13-0.648,0.191-0.974c0.073-0.388,0.14-0.778,0.206-1.169
			c0.054-0.321,0.11-0.642,0.16-0.965c0.062-0.397,0.117-0.796,0.172-1.196c0.044-0.319,0.09-0.637,0.129-0.958
			c0.051-0.411,0.094-0.824,0.138-1.238c0.033-0.309,0.068-0.617,0.097-0.927c0.04-0.436,0.072-0.875,0.104-1.313
			c0.021-0.29,0.047-0.579,0.065-0.87c0.03-0.488,0.05-0.979,0.07-1.469c0.01-0.242,0.025-0.483,0.033-0.726
			c0.023-0.734,0.035-1.471,0.035-2.21c0-0.739-0.012-1.475-0.035-2.21c-0.007-0.243-0.023-0.484-0.033-0.726
			c-0.02-0.49-0.04-0.981-0.07-1.469c-0.018-0.291-0.044-0.58-0.065-0.87c-0.032-0.438-0.064-0.876-0.104-1.313
			c-0.029-0.31-0.064-0.618-0.097-0.927c-0.044-0.413-0.087-0.826-0.138-1.238c-0.04-0.32-0.085-0.638-0.129-0.958
			c-0.055-0.399-0.11-0.798-0.172-1.196c-0.05-0.322-0.105-0.643-0.16-0.965c-0.066-0.39-0.133-0.78-0.206-1.169
			c-0.061-0.325-0.126-0.649-0.191-0.974c-0.077-0.38-0.155-0.76-0.238-1.14c-0.071-0.326-0.146-0.651-0.222-0.976
			c-0.088-0.375-0.178-0.749-0.272-1.123c-0.081-0.323-0.165-0.645-0.251-0.968c-0.099-0.37-0.201-0.74-0.306-1.109
			c-0.091-0.32-0.184-0.64-0.279-0.96c-0.11-0.366-0.224-0.73-0.34-1.095c-0.101-0.317-0.202-0.633-0.307-0.949
			c-0.121-0.363-0.247-0.723-0.374-1.084c-0.11-0.312-0.219-0.624-0.334-0.935c-0.133-0.361-0.272-0.719-0.411-1.078
			c-0.118-0.304-0.234-0.609-0.357-0.912c-0.146-0.362-0.299-0.72-0.451-1.08c-0.125-0.295-0.248-0.592-0.377-0.885
			c-0.161-0.367-0.331-0.73-0.498-1.095c-0.129-0.28-0.255-0.562-0.388-0.84c-0.184-0.386-0.378-0.768-0.569-1.152
			c-0.126-0.251-0.247-0.505-0.376-0.754c-0.246-0.478-0.502-0.951-0.76-1.423c-0.082-0.151-0.16-0.303-0.243-0.453
			c-0.341-0.614-0.692-1.224-1.053-1.828c-0.133-0.223-0.272-0.441-0.407-0.662c-0.234-0.384-0.467-0.768-0.709-1.148
			c-0.162-0.254-0.331-0.504-0.497-0.757c-0.224-0.341-0.447-0.683-0.677-1.022c-0.177-0.26-0.361-0.516-0.542-0.774
			c-0.227-0.324-0.454-0.648-0.686-0.969c-0.19-0.26-0.385-0.517-0.578-0.775c-0.234-0.312-0.467-0.624-0.706-0.932
			c-0.2-0.258-0.404-0.512-0.608-0.767c-0.241-0.302-0.483-0.603-0.729-0.901c-0.21-0.254-0.423-0.505-0.636-0.756
			c-0.25-0.294-0.502-0.587-0.757-0.878c-0.217-0.246-0.436-0.49-0.656-0.734c-0.261-0.289-0.525-0.576-0.792-0.861
			c-0.223-0.238-0.447-0.474-0.673-0.709c-0.273-0.284-0.549-0.566-0.828-0.845c-0.229-0.23-0.458-0.458-0.69-0.685
			c-0.285-0.278-0.573-0.553-0.862-0.827c-0.234-0.221-0.468-0.442-0.706-0.66c-0.299-0.275-0.602-0.545-0.906-0.815
			c-0.235-0.209-0.47-0.418-0.709-0.624c-0.317-0.274-0.638-0.542-0.962-0.811c-0.234-0.195-0.468-0.392-0.705-0.585
			c-0.34-0.276-0.685-0.546-1.032-0.816c-0.227-0.177-0.452-0.357-0.682-0.532c-0.375-0.286-0.758-0.565-1.141-0.845
			c-0.207-0.151-0.411-0.306-0.62-0.455c-0.049-0.035-0.097-0.072-0.146-0.107v-17.6h138.023
			c2.781,11.295,11.691,20.206,22.987,22.988v103.444c-11.295,2.781-20.206,11.693-22.987,22.988H296.645V313.11z M465.194,382.079
			l-108.755-15.12h111.115L465.194,382.079z M482.433,175.335v64.489v0.582v31.185v0.582v64.489v15.286H296.645v-6.232H448.77
			v-7.504c0-9.037,7.352-16.389,16.388-16.389h7.504V190.175h-7.504c-9.037,0-16.388-7.352-16.388-16.389v-7.504H296.645v-6.232
			h185.788V175.335z"/>
	</g>
</g>
<g>
</g>
<g>
</g>
<g>
</g>
<g>
</g>
<g>
</g>
<g>
</g>
<g>
</g>
<g>
</g>
<g>
</g>
<g>
</g>
<g>
</g>
<g>
</g>
<g>
</g>
<g>
</g>
<g>
</g>
</svg>
