<svg clip-rule="evenodd" fill-rule="evenodd" stroke-linejoin="round" stroke-miterlimit="2" viewBox="0 0 512 512" xmlns="http://www.w3.org/2000/svg" xmlns:serif="http://www.serif.com/"><g transform="translate(0 -1686)"><g id="Icons"><path d="m171 1910.99v61.49c-.637-.31-1.305-.61-2.005-.9-13.685-5.73-41.241-9.77-72.995-9.77s-59.31 4.04-72.995 9.77c-4.276 1.79-7.367 3.84-9.211 5.87-1.946 2.15-2.794 4.45-2.794 6.72v163.72c0 2.27.848 4.57 2.794 6.72 1.844 2.04 4.935 4.08 9.211 5.87 13.685 5.73 41.241 9.78 72.995 9.78s59.31-4.05 72.995-9.78c2.878-1.2 5.219-2.52 7.005-3.88 1.786 1.36 4.127 2.68 7.005 3.88 13.685 5.73 41.241 9.78 72.995 9.78s59.31-4.05 72.995-9.78c2.878-1.2 5.219-2.52 7.005-3.88 1.786 1.36 4.127 2.68 7.005 3.88 13.685 5.73 41.241 9.78 72.995 9.78s59.31-4.05 72.995-9.78c4.276-1.79 7.367-3.83 9.211-5.87 1.946-2.15 2.794-4.45 2.794-6.72v-93.02c0-2.27-.848-4.57-2.794-6.72-1.844-2.04-4.935-4.08-9.211-5.87-13.685-5.73-41.241-9.78-72.995-9.78s-59.31 4.05-72.995 9.78c-.7.29-1.368.59-2.005.9v-132.19c0-2.27-.848-4.57-2.794-6.71-1.844-2.04-4.935-4.09-9.211-5.88-13.685-5.73-41.241-9.77-72.995-9.77s-59.31 4.04-72.995 9.77c-4.276 1.79-7.367 3.84-9.211 5.88-1.946 2.14-2.794 4.44-2.794 6.71zm10 11.69v224.93c.179.2.76.84 1.266 1.2 1.178.86 2.732 1.66 4.599 2.45 12.956 5.42 39.075 9 69.135 9s56.179-3.58 69.135-9c1.867-.79 3.421-1.59 4.599-2.45.506-.36 1.087-1 1.266-1.2v-224.93c-.637.31-1.305.61-2.005.9-13.685 5.73-41.241 9.78-72.995 9.78s-59.31-4.05-72.995-9.78c-.7-.29-1.368-.59-2.005-.9zm-160 73.18v151.75c.179.2.76.84 1.266 1.2 1.178.86 2.732 1.66 4.599 2.45 12.956 5.42 39.075 9 69.135 9s56.179-3.58 69.135-9c1.867-.79 3.421-1.59 4.599-2.45.506-.36 1.087-1 1.266-1.2v-151.75c-.637.31-1.305.61-2.005.9-13.685 5.73-41.241 9.78-72.995 9.78s-59.31-4.05-72.995-9.78c-.7-.29-1.368-.59-2.005-.9zm470 70.7c-.637.31-1.305.6-2.005.9-13.685 5.72-41.241 9.77-72.995 9.77s-59.31-4.05-72.995-9.77c-.7-.3-1.368-.59-2.005-.9v81.05c.179.2.76.84 1.266 1.2 1.178.86 2.732 1.66 4.599 2.45 12.956 5.42 39.075 9 69.135 9s56.179-3.58 69.135-9c1.867-.79 3.421-1.59 4.599-2.45.506-.36 1.087-1 1.266-1.2zm-.259-11.69c-.263.28-.653.66-1.007.92-1.178.86-2.732 1.66-4.599 2.44-12.956 5.43-39.075 9-69.135 9s-56.179-3.57-69.135-9c-1.867-.78-3.421-1.58-4.599-2.44-.354-.26-.744-.64-1.007-.92.263-.28.653-.67 1.007-.92 1.178-.86 2.732-1.67 4.599-2.45 12.956-5.42 39.075-9 69.135-9s56.179 3.58 69.135 9c1.867.78 3.421 1.59 4.599 2.45.354.25.744.64 1.007.92zm-320-70.7c-.263.28-.653.67-1.007.92-1.178.86-2.732 1.66-4.599 2.45-12.956 5.42-39.075 9-69.135 9s-56.179-3.58-69.135-9c-1.867-.79-3.421-1.59-4.599-2.45-.354-.25-.744-.64-1.007-.92.263-.28.653-.66 1.007-.92 1.178-.86 2.732-1.66 4.599-2.44 12.956-5.43 39.075-9 69.135-9s56.179 3.57 69.135 9c1.867.78 3.421 1.58 4.599 2.44.354.26.744.64 1.007.92zm160-73.18c-.263.28-.653.67-1.007.92-1.178.86-2.732 1.67-4.599 2.45-12.956 5.42-39.075 9-69.135 9s-56.179-3.58-69.135-9c-1.867-.78-3.421-1.59-4.599-2.45-.354-.25-.744-.64-1.007-.92.263-.28.653-.66 1.007-.92 1.178-.86 2.732-1.66 4.599-2.44 12.956-5.42 39.075-9 69.135-9s56.179 3.58 69.135 9c1.867.78 3.421 1.58 4.599 2.44.354.26.744.64 1.007.92zm-69.986-193.79c-.669-2.06-2.589-3.46-4.755-3.46s-4.086 1.4-4.755 3.46l-14.193 43.68h-45.93c-2.166 0-4.086 1.4-4.756 3.46-.669 2.06.064 4.31 1.817 5.59l37.158 26.99s-14.193 43.69-14.193 43.69c-.67 2.05.064 4.31 1.816 5.58 1.753 1.28 4.126 1.28 5.878 0l37.158-26.99s37.158 26.99 37.158 26.99c1.752 1.28 4.125 1.28 5.878 0 1.752-1.27 2.486-3.53 1.816-5.58l-14.193-43.69s37.158-26.99 37.158-26.99c1.753-1.28 2.486-3.53 1.817-5.59-.67-2.06-2.59-3.46-4.756-3.46h-45.93s-14.193-43.68-14.193-43.68zm-4.755 17.72 10.56 32.51c.67 2.06 2.59 3.45 4.756 3.45h34.174s-27.648 20.09-27.648 20.09c-1.752 1.27-2.485 3.53-1.816 5.59l10.56 32.5s-27.647-20.09-27.647-20.09c-1.753-1.27-4.125-1.27-5.878 0l-27.647 20.09s10.56-32.5 10.56-32.5c.669-2.06-.064-4.32-1.816-5.59l-27.648-20.09h34.174c2.166 0 4.086-1.39 4.756-3.45z"/></g></g></svg>