<svg id="Capa_1" enable-background="new 0 0 512 512" height="512" viewBox="0 0 512 512" width="512" xmlns="http://www.w3.org/2000/svg"><g><path d="m162.142 95.523c0-5.974-.792-11.806-2.286-17.385 5.68 4.913 15.414 8.916 24.22 8.862h320.424c4.143 0 7.5-3.358 7.5-7.5s-3.357-7.5-7.5-7.5h-301.994v-57h165.814c4.143 0 7.5-3.358 7.5-7.5s-3.357-7.5-7.5-7.5h-298.87c-38.295 0-69.45 31.155-69.45 69.45v435.05c0 4.142 3.358 7.5 7.5 7.5s7.5-3.358 7.5-7.5v-301.994h57v196.304c0 4.142 3.358 7.5 7.5 7.5s7.5-3.358 7.5-7.5v-214.38c0-9.113-3.314-17.883-9.324-24.735 5.684 1.583 11.665 2.447 17.847 2.447 36.734 0 66.619-29.885 66.619-66.619zm-147.142 91.983v-118.056c0-30.024 24.426-54.45 54.45-54.45h118.056v57h-3.43c-5.178 0-10.248-1.814-14.275-5.108-10.503-8.59-25.444-20.051-39.543-28.223-8.82-5.653-23.021-9.989-34.735-9.766-10.653 0-21.251 2.578-30.649 7.456-3.677 1.908-5.11 6.435-3.202 10.111 1.909 3.677 6.437 5.111 10.111 3.202 7.376-3.828 15.364-5.769 23.74-5.769 8.761.098 18.545 2.362 27.12 7.692 15.215 9.375 24.5 25.826 24.5 43.928 0 28.463-23.156 51.62-51.62 51.62s-51.62-23.156-51.62-51.62c0-8.311 1.912-16.242 5.683-23.574 1.895-3.684.444-8.206-3.239-10.1s-8.205-.444-10.1 3.239c-4.805 9.341-7.344 19.865-7.344 30.435-.112 8.602 2.285 19.446 5.968 27.585 8.333 18.519 21.669 35.407 31.395 46.318 3.698 4.141 5.734 9.47 5.734 15.004v3.076z"/><path d="m403.32 15h101.18c4.143 0 7.5-3.358 7.5-7.5s-3.357-7.5-7.5-7.5h-101.18c-4.143 0-7.5 3.358-7.5 7.5s3.358 7.5 7.5 7.5z"/><path d="m79.5 426.31c-4.142 0-7.5 3.358-7.5 7.5v70.69c0 4.142 3.358 7.5 7.5 7.5s7.5-3.358 7.5-7.5v-70.69c0-4.142-3.358-7.5-7.5-7.5z"/><path d="m159.881 219.006c-29.625 0-53.728 24.102-53.728 53.728 0 29.625 24.102 53.727 53.728 53.727 29.625 0 53.727-24.102 53.727-53.727 0-29.626-24.102-53.728-53.727-53.728zm-38.727 53.728c0-1.223.064-2.431.175-3.626l42.177 42.178c-1.194.111-2.402.175-3.625.175-21.354 0-38.727-17.373-38.727-38.727zm58.37 33.356-52.999-52.999c3.338-5.647 8.066-10.375 13.713-13.714l52.999 52.999c-3.338 5.647-8.066 10.376-13.713 13.714zm18.909-29.731-42.178-42.177c1.195-.112 2.403-.175 3.626-.175 21.354 0 38.727 17.373 38.727 38.728 0 1.221-.063 2.429-.175 3.624z"/><path d="m310.725 197.872c20.947-20.948 20.947-55.033 0-75.982-20.949-20.948-55.034-20.948-75.982 0-20.948 20.949-20.948 55.034 0 75.982 10.474 10.474 24.232 15.711 37.991 15.711s27.516-5.237 37.991-15.711zm-10.608-10.606c-.865.865-1.763 1.673-2.687 2.439v-59.647c.923.766 1.822 1.574 2.687 2.439 15.1 15.1 15.1 39.669 0 54.769zm-54.768-54.769c.865-.865 1.764-1.674 2.688-2.44v59.648c-.923-.766-1.823-1.575-2.688-2.439-15.1-15.1-15.1-39.669 0-54.769zm17.687 64.86v-74.953c3.177-.816 6.436-1.233 9.697-1.233s6.52.417 9.697 1.233v74.952c-6.353 1.634-13.04 1.634-19.394.001z"/><path d="m293.961 240.234c-29.625 0-53.728 24.102-53.728 53.727 0 6.559 1.17 12.969 3.479 19.054 1.469 3.873 5.798 5.823 9.672 4.352 3.873-1.469 5.822-5.799 4.352-9.672-1.661-4.378-2.503-8.999-2.503-13.733 0-21.354 17.373-38.727 38.728-38.727s38.728 17.373 38.728 38.727-17.373 38.728-38.728 38.728c-5.55 0-10.904-1.146-15.913-3.408-3.779-1.708-8.217-.025-9.922 3.75-1.704 3.775-.025 8.217 3.75 9.921 6.962 3.143 14.393 4.737 22.085 4.737 29.625 0 53.728-24.102 53.728-53.728-.001-29.626-24.103-53.728-53.728-53.728z"/><path d="m509.804 468.53-105.4-105.4c-6.823-6.823-17.927-6.823-24.748 0l-16.526 16.525c-6.823 6.823-6.823 17.926 0 24.749l105.4 105.4c1.465 1.464 3.385 2.197 5.304 2.197s3.839-.732 5.304-2.197c2.929-2.929 2.929-7.678 0-10.606l-50.652-50.652 20.06-20.06 50.651 50.651c2.93 2.929 7.678 2.929 10.607 0 2.928-2.929 2.928-7.678 0-10.607zm-136.069-78.269 16.526-16.525c.637-.637 1.381-.732 1.768-.732.386 0 1.13.095 1.767.732l10.069 10.069-20.06 20.06-10.068-10.068c-.976-.975-.976-2.561-.002-3.536zm44.143 47.677-23.466-23.466 20.06-20.06 23.466 23.466z"/><circle cx="234.728" cy="43.5" r="7.505"/><circle cx="284.738" cy="43.5" r="7.505"/><circle cx="334.748" cy="43.5" r="7.505"/><circle cx="384.758" cy="43.5" r="7.505"/><path d="m427.263 43.5c0 4.142 3.362 7.505 7.505 7.505s7.506-3.363 7.506-7.505-3.363-7.505-7.506-7.505-7.505 3.363-7.505 7.505z"/><circle cx="484.778" cy="43.5" r="7.505"/><circle cx="43.5" cy="234.728" r="7.505"/><path d="m43.5 277.233c-4.142 0-7.505 3.363-7.505 7.505s3.363 7.505 7.505 7.505 7.505-3.363 7.505-7.505-3.363-7.505-7.505-7.505z"/><circle cx="43.5" cy="334.748" r="7.505"/><path d="m43.5 377.253c-4.142 0-7.505 3.363-7.505 7.505s3.363 7.505 7.505 7.505 7.505-3.363 7.505-7.505-3.363-7.505-7.505-7.505z"/><circle cx="43.5" cy="434.768" r="7.505"/><path d="m43.5 477.273c-4.142 0-7.505 3.363-7.505 7.505s3.363 7.505 7.505 7.505 7.505-3.363 7.505-7.505-3.363-7.505-7.505-7.505z"/></g></svg>