<svg clip-rule="evenodd" fill-rule="evenodd" stroke-linejoin="round" stroke-miterlimit="2" viewBox="0 0 512 512" xmlns="http://www.w3.org/2000/svg" xmlns:serif="http://www.serif.com/"><g transform="translate(-562 -1686)"><g id="Icons"><path d="m679.633 1962.25-105.169 105.17c-1.315 1.32-1.791 3.26-1.236 5.03s2.049 3.1 3.879 3.43l63.576 11.53s11.536 63.58 11.536 63.58c.332 1.83 1.653 3.32 3.428 3.88 1.775.55 3.712.08 5.027-1.24l103.358-103.35 4.07 25.9c.307 1.95 1.735 3.54 3.645 4.05s3.941-.15 5.184-1.69l22.181-27.46s14.318 32.27 14.318 32.27c.802 1.8 2.593 2.97 4.57 2.97s3.768-1.17 4.57-2.97l14.318-32.27s22.181 27.46 22.181 27.46c1.243 1.54 3.274 2.2 5.184 1.69s3.338-2.1 3.645-4.05l4.07-25.9 103.358 103.35c1.315 1.32 3.252 1.79 5.027 1.24 1.775-.56 3.096-2.05 3.428-3.88l11.536-63.58s63.573-11.53 63.573-11.53c1.83-.33 3.33-1.66 3.88-3.43.56-1.77.08-3.71-1.23-5.03l-105.173-105.17 30.198-4.74c1.953-.31 3.542-1.74 4.053-3.65.512-1.91-.15-3.94-1.687-5.18l-27.46-22.18s32.265-14.32 32.265-14.32c1.807-.8 2.972-2.59 2.972-4.57s-1.165-3.77-2.972-4.57l-32.265-14.32s27.46-22.18 27.46-22.18c1.537-1.24 2.199-3.27 1.687-5.18-.511-1.91-2.1-3.34-4.053-3.65l-34.871-5.48s20.783-28.53 20.783-28.53c1.164-1.6 1.277-3.73.288-5.44-.988-1.71-2.893-2.68-4.858-2.47l-35.102 3.73s12.691-32.94 12.691-32.94c.71-1.85.267-3.94-1.131-5.33-1.398-1.4-3.488-1.85-5.333-1.13l-32.939 12.69s3.733-35.11 3.733-35.11c.209-1.96-.76-3.87-2.472-4.85-1.712-.99-3.846-.88-5.444.28l-28.532 20.79s-5.48-34.87-5.48-34.87c-.307-1.96-1.735-3.55-3.645-4.06s-3.941.15-5.184 1.69l-22.181 27.46s-14.318-32.26-14.318-32.26c-.802-1.81-2.593-2.98-4.57-2.98s-3.768 1.17-4.57 2.98l-14.318 32.26s-22.181-27.46-22.181-27.46c-1.243-1.54-3.274-2.2-5.184-1.69s-3.338 2.1-3.645 4.06l-5.48 34.87s-28.532-20.79-28.532-20.79c-1.598-1.16-3.732-1.27-5.444-.28-1.712.98-2.681 2.89-2.472 4.85l3.733 35.11s-32.939-12.69-32.939-12.69c-1.845-.72-3.935-.27-5.333 1.13-1.398 1.39-1.841 3.48-1.131 5.33l12.691 32.94s-35.102-3.73-35.102-3.73c-1.965-.21-3.87.76-4.858 2.47-.989 1.71-.876 3.84.288 5.44l20.783 28.53s-34.871 5.48-34.871 5.48c-1.953.31-3.542 1.74-4.053 3.65-.512 1.91.15 3.94 1.687 5.18l27.46 22.18s-32.265 14.32-32.265 14.32c-1.807.8-2.972 2.59-2.972 4.57s1.165 3.77 2.972 4.57l32.265 14.32s-27.46 22.18-27.46 22.18c-1.537 1.24-2.199 3.27-1.687 5.18.511 1.91 2.1 3.34 4.053 3.65zm293.673 31.09c.281 1.21.105 2.51-.541 3.63-.988 1.71-2.893 2.68-4.858 2.47 0 0-35.102-3.74-35.102-3.74l12.691 32.94c.71 1.85.267 3.94-1.131 5.34-1.398 1.39-3.488 1.84-5.333 1.13 0 0-32.939-12.69-32.939-12.69l3.733 35.1c.209 1.96-.76 3.87-2.472 4.86s-3.846.87-5.444-.29l-14.681-10.7 88.417 88.42 10.45-57.59c.372-2.05 1.977-3.65 4.027-4.03 0 0 57.587-10.45 57.587-10.45zm-310.612 0-74.408 74.4 57.591 10.45c2.05.38 3.655 1.98 4.027 4.03 0 0 10.45 57.59 10.45 57.59l88.417-88.42-14.681 10.7c-1.598 1.16-3.732 1.28-5.444.29s-2.681-2.9-2.472-4.86c0 0 3.733-35.1 3.733-35.1l-32.939 12.69c-1.845.71-3.935.26-5.333-1.13-1.398-1.4-1.841-3.49-1.131-5.34 0 0 12.691-32.94 12.691-32.94l-35.102 3.74c-1.965.21-3.87-.76-4.858-2.47-.646-1.12-.822-2.42-.541-3.63zm155.306-247.11 13.067 29.44c.706 1.6 2.19 2.71 3.917 2.93 1.727.23 3.448-.46 4.542-1.81l20.242-25.06s5.001 31.82 5.001 31.82c.27 1.72 1.417 3.18 3.026 3.84 1.609.67 3.449.45 4.857-.57l26.038-18.97s-3.406 32.03-3.406 32.03c-.184 1.74.547 3.44 1.928 4.5 1.382 1.06 3.216 1.32 4.842.7l30.06-11.58s-11.581 30.06-11.581 30.06c-.627 1.62-.362 3.46.699 4.84 1.06 1.38 2.763 2.11 4.495 1.93l32.033-3.41s-18.966 26.04-18.966 26.04c-1.026 1.41-1.245 3.25-.578 4.86.666 1.6 2.122 2.75 3.843 3.02l31.823 5s-25.059 20.24-25.059 20.24c-1.355 1.1-2.043 2.82-1.816 4.55.228 1.72 1.337 3.21 2.929 3.91l29.445 13.07s-29.445 13.07-29.445 13.07c-1.592.7-2.701 2.19-2.929 3.92-.227 1.72.461 3.44 1.816 4.54l25.059 20.24s-31.823 5-31.823 5c-1.721.27-3.177 1.42-3.843 3.03-.667 1.61-.448 3.45.578 4.85l18.966 26.04s-32.033-3.41-32.033-3.41c-1.732-.18-3.435.55-4.495 1.93-1.061 1.39-1.326 3.22-.699 4.84l11.581 30.06s-30.06-11.58-30.06-11.58c-1.626-.62-3.46-.36-4.842.7-1.381 1.06-2.112 2.77-1.928 4.5l3.406 32.03s-26.038-18.97-26.038-18.97c-1.408-1.02-3.248-1.24-4.857-.57-1.609.66-2.756 2.12-3.026 3.84l-5.001 31.82s-20.242-25.06-20.242-25.06c-1.094-1.35-2.815-2.04-4.542-1.81s-3.211 1.34-3.917 2.93l-13.067 29.44s-13.067-29.44-13.067-29.44c-.706-1.59-2.19-2.7-3.917-2.93s-3.448.46-4.542 1.81l-20.242 25.06s-5.001-31.82-5.001-31.82c-.27-1.72-1.417-3.18-3.026-3.84-1.609-.67-3.449-.45-4.857.57l-26.038 18.97s3.406-32.03 3.406-32.03c.184-1.73-.547-3.44-1.928-4.5-1.382-1.06-3.216-1.32-4.842-.7l-30.06 11.58s11.581-30.06 11.581-30.06c.627-1.62.362-3.45-.699-4.84-1.06-1.38-2.763-2.11-4.495-1.93l-32.033 3.41s18.966-26.04 18.966-26.04c1.026-1.4 1.245-3.24.578-4.85-.666-1.61-2.122-2.76-3.843-3.03l-31.823-5s25.059-20.24 25.059-20.24c1.355-1.1 2.043-2.82 1.816-4.54-.228-1.73-1.337-3.22-2.929-3.92l-29.445-13.07s29.445-13.07 29.445-13.07c1.592-.7 2.701-2.19 2.929-3.91.227-1.73-.461-3.45-1.816-4.55l-25.059-20.24s31.823-5 31.823-5c1.721-.27 3.177-1.42 3.843-3.02.667-1.61.448-3.45-.578-4.86l-18.966-26.04s32.033 3.41 32.033 3.41c1.732.18 3.435-.55 4.495-1.93 1.061-1.38 1.326-3.22.699-4.84l-11.581-30.06s30.06 11.58 30.06 11.58c1.626.62 3.46.36 4.842-.7 1.381-1.06 2.112-2.76 1.928-4.5l-3.406-32.03s26.038 18.97 26.038 18.97c1.408 1.02 3.248 1.24 4.857.57 1.609-.66 2.756-2.12 3.026-3.84l5.001-31.82s20.242 25.06 20.242 25.06c1.094 1.35 2.815 2.04 4.542 1.81 1.727-.22 3.211-1.33 3.917-2.93zm0 43.88c-64.848 0-117.496 52.65-117.496 117.5s52.648 117.5 117.496 117.5 117.496-52.65 117.496-117.5-52.648-117.5-117.496-117.5zm0 10c59.329 0 107.496 48.17 107.496 107.5s-48.167 107.5-107.496 107.5-107.496-48.17-107.496-107.5 48.167-107.5 107.496-107.5zm4.755 44.25c-.669-2.06-2.589-3.45-4.755-3.45s-4.086 1.39-4.755 3.45l-14.193 43.69h-45.93c-2.166 0-4.086 1.39-4.756 3.45-.669 2.06.064 4.32 1.817 5.59l37.158 27s-14.193 43.68-14.193 43.68c-.67 2.06.064 4.32 1.816 5.59 1.753 1.27 4.126 1.27 5.878 0l37.158-27s37.158 27 37.158 27c1.752 1.27 4.125 1.27 5.878 0 1.752-1.27 2.486-3.53 1.816-5.59l-14.193-43.68s37.158-27 37.158-27c1.753-1.27 2.486-3.53 1.817-5.59-.67-2.06-2.59-3.45-4.756-3.45h-45.93s-14.193-43.69-14.193-43.69zm-4.755 17.73 10.56 32.5c.67 2.06 2.59 3.46 4.756 3.46h34.174s-27.648 20.08-27.648 20.08c-1.752 1.27-2.485 3.53-1.816 5.59l10.56 32.5s-27.647-20.08-27.647-20.08c-1.753-1.28-4.125-1.28-5.878 0l-27.647 20.08s10.56-32.5 10.56-32.5c.669-2.06-.064-4.32-1.816-5.59l-27.648-20.08h34.174c2.166 0 4.086-1.4 4.756-3.46z"/></g></g></svg>